<?xml version="1.0" encoding="UTF-8" standalone="no"?>
<!DOCTYPE svg PUBLIC "-//W3C//DTD SVG 1.1//EN"
 "http://www.w3.org/Graphics/SVG/1.1/DTD/svg11.dtd">
<!-- Generated by graphviz version 2.43.0 (0)
 -->
<!-- Title: Hierarchical_Control Pages: 1 -->
<svg width="1045pt" height="971pt"
 viewBox="0.00 0.00 1045.00 971.20" xmlns="http://www.w3.org/2000/svg" xmlns:xlink="http://www.w3.org/1999/xlink">
<g id="graph0" class="graph" transform="scale(1 1) rotate(0) translate(4 967.2)">
<title>Hierarchical_Control</title>
<polygon fill="white" stroke="transparent" points="-4,4 -4,-967.2 1041,-967.2 1041,4 -4,4"/>
<g id="clust1" class="cluster">
<title>cluster_planning</title>
<polygon fill="#e3f2fd" stroke="#e3f2fd" points="150,-568.2 150,-861.2 366,-861.2 366,-568.2 150,-568.2"/>
<text text-anchor="middle" x="258" y="-846" font-family="Arial Bold" font-size="14.00">规划层 Planning Layer (10Hz)</text>
</g>
<g id="clust2" class="cluster">
<title>cluster_mpc</title>
<polygon fill="#fff3e0" stroke="#fff3e0" points="8,-191.6 8,-379.2 288,-379.2 288,-191.6 8,-191.6"/>
<text text-anchor="middle" x="148" y="-364" font-family="Arial Bold" font-size="14.00">MPC 层 Model Predictive Control (100Hz)</text>
</g>
<g id="clust3" class="cluster">
<title>cluster_wbc</title>
<polygon fill="#e8f5e9" stroke="#e8f5e9" points="323,-75 323,-425.2 829,-425.2 829,-75 323,-75"/>
<text text-anchor="middle" x="576" y="-410" font-family="Arial Bold" font-size="14.00">WBC 层 Whole Body Control (500Hz) &#45; 核心创新</text>
</g>
<g id="clust4" class="cluster">
<title>cluster_primary</title>
<polygon fill="#c8e6c9" stroke="#c8e6c9" points="331,-201.6 331,-276.6 642,-276.6 642,-201.6 331,-201.6"/>
<text text-anchor="middle" x="486.5" y="-261.4" font-family="Arial Bold" font-size="14.00">主任务 Primary Tasks</text>
</g>
<g id="clust5" class="cluster">
<title>cluster_secondary</title>
<polygon fill="#ffccbc" stroke="#ffccbc" points="415,-296.2 415,-394.2 797,-394.2 797,-296.2 415,-296.2"/>
<text text-anchor="middle" x="606" y="-379" font-family="Arial Bold" font-size="14.00">次级任务 Secondary Tasks</text>
<text text-anchor="middle" x="606" y="-364" font-family="Arial Bold" font-size="14.00">零空间优化 Null Space</text>
</g>
<g id="clust6" class="cluster">
<title>cluster_execution</title>
<polygon fill="#f3e5f5" stroke="#f3e5f5" points="375,-546.2 375,-955.2 612,-955.2 612,-546.2 375,-546.2"/>
<text text-anchor="middle" x="493.5" y="-940" font-family="Arial Bold" font-size="14.00">执行层 Execution Layer (1000Hz)</text>
</g>
<g id="clust7" class="cluster">
<title>cluster_dual</title>
<polygon fill="#fff9c4" stroke="#fff9c4" points="383,-684.2 383,-767.2 604,-767.2 604,-684.2 383,-684.2"/>
<text text-anchor="middle" x="493.5" y="-752" font-family="Arial Bold" font-size="14.00">双通道执行 Dual&#45;Channel</text>
</g>
<!-- planner -->
<g id="node1" class="node">
<title>planner</title>
<path fill="#bbdefb" stroke="black" d="M129.5,-830.2C129.5,-830.2 40.5,-830.2 40.5,-830.2 34.5,-830.2 28.5,-824.2 28.5,-818.2 28.5,-818.2 28.5,-806.2 28.5,-806.2 28.5,-800.2 34.5,-794.2 40.5,-794.2 40.5,-794.2 129.5,-794.2 129.5,-794.2 135.5,-794.2 141.5,-800.2 141.5,-806.2 141.5,-806.2 141.5,-818.2 141.5,-818.2 141.5,-824.2 135.5,-830.2 129.5,-830.2"/>
<text text-anchor="middle" x="85" y="-815.4" font-family="Arial" font-size="11.00">全局路径规划器</text>
<text text-anchor="middle" x="85" y="-803.4" font-family="Arial" font-size="11.00">Global Path Planner</text>
</g>
<!-- fsm -->
<g id="node3" class="node">
<title>fsm</title>
<path fill="#90caf9" stroke="black" stroke-width="2" d="M290,-732.2C290,-732.2 228,-732.2 228,-732.2 222,-732.2 216,-726.2 216,-720.2 216,-720.2 216,-708.2 216,-708.2 216,-702.2 222,-696.2 228,-696.2 228,-696.2 290,-696.2 290,-696.2 296,-696.2 302,-702.2 302,-708.2 302,-708.2 302,-720.2 302,-720.2 302,-726.2 296,-732.2 290,-732.2"/>
<text text-anchor="middle" x="259" y="-717.4" font-family="Arial" font-size="11.00">状态机</text>
<text text-anchor="middle" x="259" y="-705.4" font-family="Arial" font-size="11.00">State Machine</text>
</g>
<!-- planner&#45;&gt;fsm -->
<g id="edge1" class="edge">
<title>planner&#45;&gt;fsm</title>
<path fill="none" stroke="black" d="M116.11,-794.03C144.93,-778.13 187.96,-754.39 219.26,-737.12"/>
<polygon fill="black" stroke="black" points="221.1,-740.11 228.16,-732.21 217.72,-733.98 221.1,-740.11"/>
</g>
<!-- window -->
<g id="node2" class="node">
<title>window</title>
<path fill="#bbdefb" stroke="black" d="M299,-830.2C299,-830.2 219,-830.2 219,-830.2 213,-830.2 207,-824.2 207,-818.2 207,-818.2 207,-806.2 207,-806.2 207,-800.2 213,-794.2 219,-794.2 219,-794.2 299,-794.2 299,-794.2 305,-794.2 311,-800.2 311,-806.2 311,-806.2 311,-818.2 311,-818.2 311,-824.2 305,-830.2 299,-830.2"/>
<text text-anchor="middle" x="259" y="-815.4" font-family="Arial" font-size="11.00">窗框识别</text>
<text text-anchor="middle" x="259" y="-803.4" font-family="Arial" font-size="11.00">Window Detection</text>
</g>
<!-- window&#45;&gt;fsm -->
<g id="edge2" class="edge">
<title>window&#45;&gt;fsm</title>
<path fill="none" stroke="black" d="M259,-794.03C259,-779.7 259,-759 259,-742.41"/>
<polygon fill="black" stroke="black" points="262.5,-742.21 259,-732.21 255.5,-742.21 262.5,-742.21"/>
</g>
<!-- mode_trot -->
<g id="node4" class="node">
<title>mode_trot</title>
<path fill="#c5cae9" stroke="black" d="M232,-612.2C232,-612.2 170,-612.2 170,-612.2 164,-612.2 158,-606.2 158,-600.2 158,-600.2 158,-588.2 158,-588.2 158,-582.2 164,-576.2 170,-576.2 170,-576.2 232,-576.2 232,-576.2 238,-576.2 244,-582.2 244,-588.2 244,-588.2 244,-600.2 244,-600.2 244,-606.2 238,-612.2 232,-612.2"/>
<text text-anchor="middle" x="201" y="-597.4" font-family="Arial" font-size="11.00">平地 Trot 模式</text>
<text text-anchor="middle" x="201" y="-585.4" font-family="Arial" font-size="11.00">Trotting Gait</text>
</g>
<!-- fsm&#45;&gt;mode_trot -->
<g id="edge3" class="edge">
<title>fsm&#45;&gt;mode_trot</title>
<path fill="none" stroke="black" d="M250.57,-696.04C240.94,-676.46 225.1,-644.23 213.92,-621.48"/>
<polygon fill="black" stroke="black" points="217,-619.81 209.44,-612.37 210.71,-622.89 217,-619.81"/>
</g>
<!-- mode_crawl -->
<g id="node5" class="node">
<title>mode_crawl</title>
<path fill="#c5cae9" stroke="black" d="M345.5,-612.2C345.5,-612.2 274.5,-612.2 274.5,-612.2 268.5,-612.2 262.5,-606.2 262.5,-600.2 262.5,-600.2 262.5,-588.2 262.5,-588.2 262.5,-582.2 268.5,-576.2 274.5,-576.2 274.5,-576.2 345.5,-576.2 345.5,-576.2 351.5,-576.2 357.5,-582.2 357.5,-588.2 357.5,-588.2 357.5,-600.2 357.5,-600.2 357.5,-606.2 351.5,-612.2 345.5,-612.2"/>
<text text-anchor="middle" x="310" y="-597.4" font-family="Arial" font-size="11.00">穿窗 Crawl 模式</text>
<text text-anchor="middle" x="310" y="-585.4" font-family="Arial" font-size="11.00">Crawling Gait</text>
</g>
<!-- fsm&#45;&gt;mode_crawl -->
<g id="edge4" class="edge">
<title>fsm&#45;&gt;mode_crawl</title>
<path fill="none" stroke="black" d="M266.42,-696.04C274.84,-676.55 288.68,-644.51 298.51,-621.78"/>
<polygon fill="black" stroke="black" points="301.82,-622.94 302.58,-612.37 295.4,-620.17 301.82,-622.94"/>
</g>
<!-- mpc -->
<g id="node6" class="node">
<title>mpc</title>
<path fill="#ffb74d" stroke="black" stroke-width="2" d="M236,-496.2C236,-496.2 166,-496.2 166,-496.2 160,-496.2 154,-490.2 154,-484.2 154,-484.2 154,-464.2 154,-464.2 154,-458.2 160,-452.2 166,-452.2 166,-452.2 236,-452.2 236,-452.2 242,-452.2 248,-458.2 248,-464.2 248,-464.2 248,-484.2 248,-484.2 248,-490.2 242,-496.2 236,-496.2"/>
<text text-anchor="middle" x="201" y="-483.4" font-family="Arial" font-size="11.00">MPC 优化器</text>
<text text-anchor="middle" x="201" y="-471.4" font-family="Arial" font-size="11.00">MPC Optimizer</text>
<text text-anchor="middle" x="201" y="-459.4" font-family="Arial" font-size="11.00">预测时域: 10 步</text>
</g>
<!-- mode_trot&#45;&gt;mpc -->
<g id="edge28" class="edge">
<title>mode_trot&#45;&gt;mpc</title>
<path fill="none" stroke="blue" stroke-width="2" d="M201,-576.04C201,-557.83 201,-528.66 201,-506.37"/>
<polygon fill="blue" stroke="blue" stroke-width="2" points="204.5,-506.37 201,-496.37 197.5,-506.37 204.5,-506.37"/>
<text text-anchor="middle" x="221" y="-522.7" font-family="Arial" font-size="10.00">步态参数</text>
</g>
<!-- mode_crawl&#45;&gt;mpc -->
<g id="edge29" class="edge">
<title>mode_crawl&#45;&gt;mpc</title>
<path fill="none" stroke="blue" stroke-width="2" d="M297.04,-575.9C284.41,-559.44 264.35,-534.27 245,-514.2 241.46,-510.52 237.63,-506.8 233.75,-503.18"/>
<polygon fill="blue" stroke="blue" stroke-width="2" points="236.05,-500.55 226.3,-496.4 231.34,-505.72 236.05,-500.55"/>
<text text-anchor="middle" x="284" y="-522.7" font-family="Arial" font-size="10.00">步态参数</text>
</g>
<!-- dynamics -->
<g id="node7" class="node">
<title>dynamics</title>
<path fill="#ffe0b2" stroke="black" d="M120,-348.2C120,-348.2 48,-348.2 48,-348.2 42,-348.2 36,-342.2 36,-336.2 36,-336.2 36,-316.2 36,-316.2 36,-310.2 42,-304.2 48,-304.2 48,-304.2 120,-304.2 120,-304.2 126,-304.2 132,-310.2 132,-316.2 132,-316.2 132,-336.2 132,-336.2 132,-342.2 126,-348.2 120,-348.2"/>
<text text-anchor="middle" x="84" y="-335.4" font-family="Arial" font-size="11.00">动力学模型</text>
<text text-anchor="middle" x="84" y="-323.4" font-family="Arial" font-size="11.00">Dynamics Model</text>
<text text-anchor="middle" x="84" y="-311.4" font-family="Arial" font-size="11.00">单刚体模型</text>
</g>
<!-- mpc&#45;&gt;dynamics -->
<g id="edge5" class="edge">
<title>mpc&#45;&gt;dynamics</title>
<path fill="none" stroke="black" d="M170.09,-451.99C160.11,-444.26 149.45,-435 141,-425.2 123.36,-404.73 108.25,-378.04 98.03,-357.68"/>
<polygon fill="black" stroke="black" points="101.09,-355.98 93.55,-348.53 94.8,-359.05 101.09,-355.98"/>
</g>
<!-- constraints -->
<g id="node8" class="node">
<title>constraints</title>
<path fill="#ffe0b2" stroke="black" d="M223.5,-348.2C223.5,-348.2 162.5,-348.2 162.5,-348.2 156.5,-348.2 150.5,-342.2 150.5,-336.2 150.5,-336.2 150.5,-316.2 150.5,-316.2 150.5,-310.2 156.5,-304.2 162.5,-304.2 162.5,-304.2 223.5,-304.2 223.5,-304.2 229.5,-304.2 235.5,-310.2 235.5,-316.2 235.5,-316.2 235.5,-336.2 235.5,-336.2 235.5,-342.2 229.5,-348.2 223.5,-348.2"/>
<text text-anchor="middle" x="193" y="-335.4" font-family="Arial" font-size="11.00">约束条件</text>
<text text-anchor="middle" x="193" y="-323.4" font-family="Arial" font-size="11.00">Constraints</text>
<text text-anchor="middle" x="193" y="-311.4" font-family="Arial" font-size="11.00">摩擦锥、ZMP</text>
</g>
<!-- mpc&#45;&gt;constraints -->
<g id="edge6" class="edge">
<title>mpc&#45;&gt;constraints</title>
<path fill="none" stroke="black" d="M199.84,-451.97C198.49,-427.42 196.27,-386.79 194.72,-358.59"/>
<polygon fill="black" stroke="black" points="198.21,-358.24 194.16,-348.45 191.22,-358.63 198.21,-358.24"/>
</g>
<!-- grf -->
<g id="node9" class="node">
<title>grf</title>
<path fill="#ff9800" stroke="black" stroke-width="2" d="M248,-255.6C248,-255.6 138,-255.6 138,-255.6 132,-255.6 126,-249.6 126,-243.6 126,-243.6 126,-211.6 126,-211.6 126,-205.6 132,-199.6 138,-199.6 138,-199.6 248,-199.6 248,-199.6 254,-199.6 260,-205.6 260,-211.6 260,-211.6 260,-243.6 260,-243.6 260,-249.6 254,-255.6 248,-255.6"/>
<text text-anchor="middle" x="193" y="-242.8" font-family="Arial" font-size="11.00">地面反作用力 GRF</text>
<text text-anchor="middle" x="193" y="-230.8" font-family="Arial" font-size="11.00">Ground Reaction Forces</text>
<text text-anchor="middle" x="193" y="-218.8" font-family="Arial" font-size="11.00">未来 10 个周期</text>
<text text-anchor="middle" x="193" y="-206.8" font-family="Arial" font-size="11.00">F₁, F₂, F₃, F₄</text>
</g>
<!-- dynamics&#45;&gt;grf -->
<g id="edge7" class="edge">
<title>dynamics&#45;&gt;grf</title>
<path fill="none" stroke="black" d="M107.92,-304C121.71,-291.78 139.35,-276.14 155,-262.28"/>
<polygon fill="black" stroke="black" points="157.33,-264.89 162.49,-255.63 152.69,-259.65 157.33,-264.89"/>
</g>
<!-- constraints&#45;&gt;grf -->
<g id="edge8" class="edge">
<title>constraints&#45;&gt;grf</title>
<path fill="none" stroke="black" d="M193,-303.76C193,-292.73 193,-278.96 193,-266.23"/>
<polygon fill="black" stroke="black" points="196.5,-265.86 193,-255.86 189.5,-265.86 196.5,-265.86"/>
</g>
<!-- wbc -->
<g id="node10" class="node">
<title>wbc</title>
<path fill="#66bb6a" stroke="black" stroke-width="3" d="M482.5,-496.2C482.5,-496.2 413.5,-496.2 413.5,-496.2 407.5,-496.2 401.5,-490.2 401.5,-484.2 401.5,-484.2 401.5,-464.2 401.5,-464.2 401.5,-458.2 407.5,-452.2 413.5,-452.2 413.5,-452.2 482.5,-452.2 482.5,-452.2 488.5,-452.2 494.5,-458.2 494.5,-464.2 494.5,-464.2 494.5,-484.2 494.5,-484.2 494.5,-490.2 488.5,-496.2 482.5,-496.2"/>
<text text-anchor="middle" x="448" y="-483.4" font-family="Arial" font-size="11.00">全身控制器</text>
<text text-anchor="middle" x="448" y="-471.4" font-family="Arial" font-size="11.00">WBC Controller</text>
<text text-anchor="middle" x="448" y="-459.4" font-family="Arial" font-size="11.00">q̇ = J†ẋ + Nq̇ₛ</text>
</g>
<!-- grf&#45;&gt;wbc -->
<g id="edge30" class="edge">
<title>grf&#45;&gt;wbc</title>
<path fill="none" stroke="blue" stroke-width="2" d="M214.64,-255.66C224.03,-267.8 234.93,-282.46 244,-296.2 280.42,-351.35 267.52,-382.52 318,-425.2 338.83,-442.81 366.71,-454.23 391.31,-461.5"/>
<polygon fill="blue" stroke="blue" stroke-width="2" points="390.69,-464.96 401.26,-464.27 392.57,-458.22 390.69,-464.96"/>
<text text-anchor="middle" x="339.5" y="-323.7" font-family="Arial" font-size="10.00">期望 GRF</text>
</g>
<!-- task1 -->
<g id="node11" class="node">
<title>task1</title>
<path fill="#a5d6a7" stroke="black" d="M415.5,-245.6C415.5,-245.6 350.5,-245.6 350.5,-245.6 344.5,-245.6 338.5,-239.6 338.5,-233.6 338.5,-233.6 338.5,-221.6 338.5,-221.6 338.5,-215.6 344.5,-209.6 350.5,-209.6 350.5,-209.6 415.5,-209.6 415.5,-209.6 421.5,-209.6 427.5,-215.6 427.5,-221.6 427.5,-221.6 427.5,-233.6 427.5,-233.6 427.5,-239.6 421.5,-245.6 415.5,-245.6"/>
<text text-anchor="middle" x="383" y="-230.8" font-family="Arial" font-size="11.00">足端轨迹跟踪</text>
<text text-anchor="middle" x="383" y="-218.8" font-family="Arial" font-size="11.00">Foot Trajectory</text>
</g>
<!-- wbc&#45;&gt;task1 -->
<g id="edge9" class="edge">
<title>wbc&#45;&gt;task1</title>
<path fill="none" stroke="black" d="M407.27,-452.06C397.55,-444.92 388.44,-435.97 383,-425.2 355.26,-370.23 366.61,-295.12 375.74,-255.54"/>
<polygon fill="black" stroke="black" points="379.14,-256.36 378.1,-245.82 372.34,-254.71 379.14,-256.36"/>
</g>
<!-- task2 -->
<g id="node12" class="node">
<title>task2</title>
<path fill="#a5d6a7" stroke="black" d="M534.5,-245.6C534.5,-245.6 457.5,-245.6 457.5,-245.6 451.5,-245.6 445.5,-239.6 445.5,-233.6 445.5,-233.6 445.5,-221.6 445.5,-221.6 445.5,-215.6 451.5,-209.6 457.5,-209.6 457.5,-209.6 534.5,-209.6 534.5,-209.6 540.5,-209.6 546.5,-215.6 546.5,-221.6 546.5,-221.6 546.5,-233.6 546.5,-233.6 546.5,-239.6 540.5,-245.6 534.5,-245.6"/>
<text text-anchor="middle" x="496" y="-230.8" font-family="Arial" font-size="11.00">质心稳定</text>
<text text-anchor="middle" x="496" y="-218.8" font-family="Arial" font-size="11.00">CoM Stabilization</text>
</g>
<!-- wbc&#45;&gt;task2 -->
<g id="edge10" class="edge">
<title>wbc&#45;&gt;task2</title>
<path fill="none" stroke="black" d="M427,-452.04C420.61,-444.25 414.4,-434.93 411,-425.2 390.51,-366.44 372.02,-335.24 409,-285.2 416.74,-274.73 425.52,-282.73 437,-276.6 449.13,-270.12 461.16,-260.97 471.16,-252.39"/>
<polygon fill="black" stroke="black" points="473.55,-254.95 478.7,-245.69 468.9,-249.71 473.55,-254.95"/>
</g>
<!-- task3 -->
<g id="node13" class="node">
<title>task3</title>
<path fill="#a5d6a7" stroke="black" d="M621.5,-245.6C621.5,-245.6 576.5,-245.6 576.5,-245.6 570.5,-245.6 564.5,-239.6 564.5,-233.6 564.5,-233.6 564.5,-221.6 564.5,-221.6 564.5,-215.6 570.5,-209.6 576.5,-209.6 576.5,-209.6 621.5,-209.6 621.5,-209.6 627.5,-209.6 633.5,-215.6 633.5,-221.6 633.5,-221.6 633.5,-233.6 633.5,-233.6 633.5,-239.6 627.5,-245.6 621.5,-245.6"/>
<text text-anchor="middle" x="599" y="-230.8" font-family="Arial" font-size="11.00">姿态控制</text>
<text text-anchor="middle" x="599" y="-218.8" font-family="Arial" font-size="11.00">Orientation</text>
</g>
<!-- wbc&#45;&gt;task3 -->
<g id="edge11" class="edge">
<title>wbc&#45;&gt;task3</title>
<path fill="none" stroke="black" d="M494.82,-474.08C581.51,-474.59 761.79,-470.09 801,-425.2 838.71,-382.01 839.04,-339.09 801,-296.2 776.79,-268.9 669.95,-294.22 638,-276.6 628.41,-271.31 620.27,-262.61 613.95,-254.07"/>
<polygon fill="black" stroke="black" points="616.77,-251.99 608.25,-245.7 610.99,-255.94 616.77,-251.99"/>
</g>
<!-- sec1 -->
<g id="node14" class="node">
<title>sec1</title>
<path fill="#ff8a65" stroke="black" stroke-width="2" d="M641,-348.2C641,-348.2 567,-348.2 567,-348.2 561,-348.2 555,-342.2 555,-336.2 555,-336.2 555,-316.2 555,-316.2 555,-310.2 561,-304.2 567,-304.2 567,-304.2 641,-304.2 641,-304.2 647,-304.2 653,-310.2 653,-316.2 653,-316.2 653,-336.2 653,-336.2 653,-342.2 647,-348.2 641,-348.2"/>
<text text-anchor="middle" x="604" y="-335.4" font-family="Arial" font-size="11.00">导轨优化</text>
<text text-anchor="middle" x="604" y="-323.4" font-family="Arial" font-size="11.00">Rail Optimization</text>
<text text-anchor="middle" x="604" y="-311.4" font-family="Arial" font-size="11.00">4&#45;DOF 冗余</text>
</g>
<!-- wbc&#45;&gt;sec1 -->
<g id="edge12" class="edge">
<title>wbc&#45;&gt;sec1</title>
<path fill="none" stroke="black" d="M494.82,-456.89C512.28,-449.2 531.39,-438.7 546,-425.2 566.4,-406.35 581.88,-378.67 591.69,-357.54"/>
<polygon fill="black" stroke="black" points="594.91,-358.9 595.8,-348.34 588.52,-356.04 594.91,-358.9"/>
</g>
<!-- sec2 -->
<g id="node15" class="node">
<title>sec2</title>
<path fill="#ffab91" stroke="black" d="M776.5,-344.2C776.5,-344.2 683.5,-344.2 683.5,-344.2 677.5,-344.2 671.5,-338.2 671.5,-332.2 671.5,-332.2 671.5,-320.2 671.5,-320.2 671.5,-314.2 677.5,-308.2 683.5,-308.2 683.5,-308.2 776.5,-308.2 776.5,-308.2 782.5,-308.2 788.5,-314.2 788.5,-320.2 788.5,-320.2 788.5,-332.2 788.5,-332.2 788.5,-338.2 782.5,-344.2 776.5,-344.2"/>
<text text-anchor="middle" x="730" y="-329.4" font-family="Arial" font-size="11.00">关节限位避让</text>
<text text-anchor="middle" x="730" y="-317.4" font-family="Arial" font-size="11.00">Joint Limit Avoidance</text>
</g>
<!-- wbc&#45;&gt;sec2 -->
<g id="edge13" class="edge">
<title>wbc&#45;&gt;sec2</title>
<path fill="none" stroke="black" d="M494.82,-472.33C540.94,-469.39 611.62,-459.11 662,-425.2 688.19,-407.57 707.3,-376.19 718.48,-353.68"/>
<polygon fill="black" stroke="black" points="721.78,-354.88 722.91,-344.34 715.46,-351.87 721.78,-354.88"/>
</g>
<!-- sec3 -->
<g id="node16" class="node">
<title>sec3</title>
<path fill="#ffab91" stroke="black" d="M524.5,-344.2C524.5,-344.2 435.5,-344.2 435.5,-344.2 429.5,-344.2 423.5,-338.2 423.5,-332.2 423.5,-332.2 423.5,-320.2 423.5,-320.2 423.5,-314.2 429.5,-308.2 435.5,-308.2 435.5,-308.2 524.5,-308.2 524.5,-308.2 530.5,-308.2 536.5,-314.2 536.5,-320.2 536.5,-320.2 536.5,-332.2 536.5,-332.2 536.5,-338.2 530.5,-344.2 524.5,-344.2"/>
<text text-anchor="middle" x="480" y="-329.4" font-family="Arial" font-size="11.00">能量最优</text>
<text text-anchor="middle" x="480" y="-317.4" font-family="Arial" font-size="11.00">Energy Minimization</text>
</g>
<!-- wbc&#45;&gt;sec3 -->
<g id="edge14" class="edge">
<title>wbc&#45;&gt;sec3</title>
<path fill="none" stroke="black" d="M452.65,-451.97C458.31,-426.16 467.86,-382.57 474.05,-354.34"/>
<polygon fill="black" stroke="black" points="477.52,-354.86 476.24,-344.35 470.68,-353.37 477.52,-354.86"/>
</g>
<!-- joint_cmd -->
<g id="node18" class="node">
<title>joint_cmd</title>
<path fill="#4db6ac" stroke="black" stroke-width="3" d="M657,-151C657,-151 541,-151 541,-151 535,-151 529,-145 529,-139 529,-139 529,-95 529,-95 529,-89 535,-83 541,-83 541,-83 657,-83 657,-83 663,-83 669,-89 669,-95 669,-95 669,-139 669,-139 669,-145 663,-151 657,-151"/>
<text text-anchor="middle" x="599" y="-138.2" font-family="Arial" font-size="11.00">16 关节指令</text>
<text text-anchor="middle" x="599" y="-126.2" font-family="Arial" font-size="11.00">16&#45;DOF Joint Commands</text>
<text text-anchor="middle" x="599" y="-114.2" font-family="Arial" font-size="11.00">━━━━━━━━━━━━━━━━</text>
<text text-anchor="middle" x="599" y="-102.2" font-family="Arial" font-size="11.00">4 导轨 (静态锁定)</text>
<text text-anchor="middle" x="599" y="-90.2" font-family="Arial" font-size="11.00">12 旋转 (动态执行)</text>
</g>
<!-- task1&#45;&gt;joint_cmd -->
<g id="edge18" class="edge">
<title>task1&#45;&gt;joint_cmd</title>
<path fill="none" stroke="black" stroke-width="2" d="M404.63,-209.53C414.23,-202.38 425.86,-194.29 437,-188 463.01,-173.31 492.71,-159.65 519.51,-148.37"/>
<polygon fill="black" stroke="black" stroke-width="2" points="520.97,-151.56 528.86,-144.49 518.28,-145.1 520.97,-151.56"/>
</g>
<!-- task2&#45;&gt;joint_cmd -->
<g id="edge19" class="edge">
<title>task2&#45;&gt;joint_cmd</title>
<path fill="none" stroke="black" stroke-width="2" d="M512.55,-209.15C525.49,-195.51 543.99,-175.99 560.57,-158.52"/>
<polygon fill="black" stroke="black" stroke-width="2" points="563.19,-160.84 567.53,-151.18 558.11,-156.02 563.19,-160.84"/>
</g>
<!-- task3&#45;&gt;joint_cmd -->
<g id="edge20" class="edge">
<title>task3&#45;&gt;joint_cmd</title>
<path fill="none" stroke="black" stroke-width="2" d="M599,-209.15C599,-196.24 599,-178.07 599,-161.34"/>
<polygon fill="black" stroke="black" stroke-width="2" points="602.5,-161.18 599,-151.18 595.5,-161.18 602.5,-161.18"/>
</g>
<!-- nullspace -->
<g id="node17" class="node">
<title>nullspace</title>
<ellipse fill="#fff59d" stroke="black" stroke-width="2" cx="736" cy="-227.6" rx="84.71" ry="39.7"/>
<text text-anchor="middle" x="736" y="-242.8" font-family="Arial" font-size="11.00">零空间投影</text>
<text text-anchor="middle" x="736" y="-230.8" font-family="Arial" font-size="11.00">Null Space Projection</text>
<text text-anchor="middle" x="736" y="-218.8" font-family="Arial" font-size="11.00">N = I &#45; J†J</text>
<text text-anchor="middle" x="736" y="-206.8" font-family="Arial" font-size="11.00">rank(N) = 4</text>
</g>
<!-- sec1&#45;&gt;nullspace -->
<g id="edge15" class="edge">
<title>sec1&#45;&gt;nullspace</title>
<path fill="none" stroke="black" stroke-width="2" d="M632.97,-304C647.64,-293.26 665.93,-279.88 683,-267.38"/>
<polygon fill="black" stroke="black" stroke-width="2" points="685.27,-270.06 691.27,-261.33 681.13,-264.41 685.27,-270.06"/>
</g>
<!-- sec2&#45;&gt;nullspace -->
<g id="edge16" class="edge">
<title>sec2&#45;&gt;nullspace</title>
<path fill="none" stroke="black" d="M731.07,-307.93C731.61,-299.28 732.29,-288.34 732.97,-277.37"/>
<polygon fill="black" stroke="black" points="736.47,-277.55 733.59,-267.35 729.48,-277.11 736.47,-277.55"/>
</g>
<!-- sec3&#45;&gt;nullspace -->
<g id="edge17" class="edge">
<title>sec3&#45;&gt;nullspace</title>
<path fill="none" stroke="black" d="M515.07,-308.07C524.91,-303.74 535.73,-299.42 546,-296.2 589.22,-282.65 603.33,-291.78 646,-276.6 655.86,-273.09 665.97,-268.64 675.68,-263.88"/>
<polygon fill="black" stroke="black" points="677.51,-266.87 684.85,-259.23 674.35,-260.63 677.51,-266.87"/>
</g>
<!-- nullspace&#45;&gt;joint_cmd -->
<g id="edge21" class="edge">
<title>nullspace&#45;&gt;joint_cmd</title>
<path fill="none" stroke="#ff6f00" stroke-width="2" d="M693.78,-193.13C679.58,-181.88 663.61,-169.22 648.88,-157.54"/>
<polygon fill="#ff6f00" stroke="#ff6f00" stroke-width="2" points="650.86,-154.64 640.85,-151.17 646.51,-160.13 650.86,-154.64"/>
</g>
<!-- ros2ctrl -->
<g id="node19" class="node">
<title>ros2ctrl</title>
<path fill="#ba68c8" stroke="black" d="M788,-36C788,-36 666,-36 666,-36 660,-36 654,-30 654,-24 654,-24 654,-12 654,-12 654,-6 660,0 666,0 666,0 788,0 788,0 794,0 800,-6 800,-12 800,-12 800,-24 800,-24 800,-30 794,-36 788,-36"/>
<text text-anchor="middle" x="727" y="-21.2" font-family="Arial" font-size="11.00">ros2_control 框架</text>
<text text-anchor="middle" x="727" y="-9.2" font-family="Arial" font-size="11.00">ROS 2 Control Framework</text>
</g>
<!-- joint_cmd&#45;&gt;ros2ctrl -->
<g id="edge31" class="edge">
<title>joint_cmd&#45;&gt;ros2ctrl</title>
<path fill="none" stroke="blue" stroke-width="2" d="M642.69,-82.89C660.33,-69.52 680.26,-54.42 696.32,-42.25"/>
<polygon fill="blue" stroke="blue" stroke-width="2" points="698.47,-45.01 704.33,-36.18 694.25,-39.43 698.47,-45.01"/>
<text text-anchor="middle" x="698" y="-57" font-family="Arial" font-size="10.00">关节指令</text>
</g>
<!-- jtc -->
<g id="node20" class="node">
<title>jtc</title>
<path fill="#ce93d8" stroke="black" d="M592,-924.2C592,-924.2 482,-924.2 482,-924.2 476,-924.2 470,-918.2 470,-912.2 470,-912.2 470,-900.2 470,-900.2 470,-894.2 476,-888.2 482,-888.2 482,-888.2 592,-888.2 592,-888.2 598,-888.2 604,-894.2 604,-900.2 604,-900.2 604,-912.2 604,-912.2 604,-918.2 598,-924.2 592,-924.2"/>
<text text-anchor="middle" x="537" y="-909.4" font-family="Arial" font-size="11.00">JointTrajectoryController</text>
<text text-anchor="middle" x="537" y="-897.4" font-family="Arial" font-size="11.00">关节轨迹控制器</text>
</g>
<!-- ros2ctrl&#45;&gt;jtc -->
<g id="edge22" class="edge">
<title>ros2ctrl&#45;&gt;jtc</title>
<path fill="none" stroke="black" d="M780.54,-36.02C815.62,-50.89 855,-76.41 855,-116 855,-813.2 855,-813.2 855,-813.2 855,-863.17 708.24,-887.71 614.12,-898.3"/>
<polygon fill="black" stroke="black" points="613.61,-894.83 604.05,-899.4 614.37,-901.79 613.61,-894.83"/>
</g>
<!-- cm -->
<g id="node21" class="node">
<title>cm</title>
<path fill="#e1bee7" stroke="black" d="M578.5,-830.2C578.5,-830.2 495.5,-830.2 495.5,-830.2 489.5,-830.2 483.5,-824.2 483.5,-818.2 483.5,-818.2 483.5,-806.2 483.5,-806.2 483.5,-800.2 489.5,-794.2 495.5,-794.2 495.5,-794.2 578.5,-794.2 578.5,-794.2 584.5,-794.2 590.5,-800.2 590.5,-806.2 590.5,-806.2 590.5,-818.2 590.5,-818.2 590.5,-824.2 584.5,-830.2 578.5,-830.2"/>
<text text-anchor="middle" x="537" y="-815.4" font-family="Arial" font-size="11.00">ControllerManager</text>
<text text-anchor="middle" x="537" y="-803.4" font-family="Arial" font-size="11.00">控制器管理器</text>
</g>
<!-- jtc&#45;&gt;cm -->
<g id="edge23" class="edge">
<title>jtc&#45;&gt;cm</title>
<path fill="none" stroke="black" d="M537,-887.89C537,-874.66 537,-856.14 537,-840.86"/>
<polygon fill="black" stroke="black" points="540.5,-840.42 537,-830.42 533.5,-840.42 540.5,-840.42"/>
</g>
<!-- rail_ch -->
<g id="node22" class="node">
<title>rail_ch</title>
<path fill="#ef5350" stroke="black" d="M583.5,-736.2C583.5,-736.2 516.5,-736.2 516.5,-736.2 510.5,-736.2 504.5,-730.2 504.5,-724.2 504.5,-724.2 504.5,-704.2 504.5,-704.2 504.5,-698.2 510.5,-692.2 516.5,-692.2 516.5,-692.2 583.5,-692.2 583.5,-692.2 589.5,-692.2 595.5,-698.2 595.5,-704.2 595.5,-704.2 595.5,-724.2 595.5,-724.2 595.5,-730.2 589.5,-736.2 583.5,-736.2"/>
<text text-anchor="middle" x="550" y="-723.4" font-family="Arial" font-size="11.00" fill="white">通道 A: 4 导轨</text>
<text text-anchor="middle" x="550" y="-711.4" font-family="Arial" font-size="11.00" fill="white">静态锁定 0.0m</text>
<text text-anchor="middle" x="550" y="-699.4" font-family="Arial" font-size="11.00" fill="white">j11, j21, j31, j41</text>
</g>
<!-- cm&#45;&gt;rail_ch -->
<g id="edge24" class="edge">
<title>cm&#45;&gt;rail_ch</title>
<path fill="none" stroke="red" stroke-width="2" d="M539.32,-794.03C541.12,-780.76 543.66,-762.03 545.81,-746.16"/>
<polygon fill="red" stroke="red" stroke-width="2" points="549.28,-746.61 547.15,-736.23 542.34,-745.67 549.28,-746.61"/>
</g>
<!-- rot_ch -->
<g id="node23" class="node">
<title>rot_ch</title>
<path fill="#66bb6a" stroke="black" d="M474.5,-736.2C474.5,-736.2 403.5,-736.2 403.5,-736.2 397.5,-736.2 391.5,-730.2 391.5,-724.2 391.5,-724.2 391.5,-704.2 391.5,-704.2 391.5,-698.2 397.5,-692.2 403.5,-692.2 403.5,-692.2 474.5,-692.2 474.5,-692.2 480.5,-692.2 486.5,-698.2 486.5,-704.2 486.5,-704.2 486.5,-724.2 486.5,-724.2 486.5,-730.2 480.5,-736.2 474.5,-736.2"/>
<text text-anchor="middle" x="439" y="-723.4" font-family="Arial" font-size="11.00" fill="white">通道 B: 12 旋转</text>
<text text-anchor="middle" x="439" y="-711.4" font-family="Arial" font-size="11.00" fill="white">动态执行</text>
<text text-anchor="middle" x="439" y="-699.4" font-family="Arial" font-size="11.00" fill="white">haa, hfe, kfe × 4</text>
</g>
<!-- cm&#45;&gt;rot_ch -->
<g id="edge25" class="edge">
<title>cm&#45;&gt;rot_ch</title>
<path fill="none" stroke="green" stroke-width="2" d="M519.48,-794.03C505.16,-780 484.61,-759.88 467.86,-743.47"/>
<polygon fill="green" stroke="green" stroke-width="2" points="470.07,-740.73 460.47,-736.23 465.17,-745.73 470.07,-740.73"/>
</g>
<!-- gazebo -->
<g id="node24" class="node">
<title>gazebo</title>
<path fill="#42a5f5" stroke="black" stroke-width="2" d="M496.5,-634.2C496.5,-634.2 395.5,-634.2 395.5,-634.2 389.5,-634.2 383.5,-628.2 383.5,-622.2 383.5,-622.2 383.5,-566.2 383.5,-566.2 383.5,-560.2 389.5,-554.2 395.5,-554.2 395.5,-554.2 496.5,-554.2 496.5,-554.2 502.5,-554.2 508.5,-560.2 508.5,-566.2 508.5,-566.2 508.5,-622.2 508.5,-622.2 508.5,-628.2 502.5,-634.2 496.5,-634.2"/>
<text text-anchor="middle" x="446" y="-621.4" font-family="Arial" font-size="11.00" fill="white">Gazebo Fortress</text>
<text text-anchor="middle" x="446" y="-609.4" font-family="Arial" font-size="11.00" fill="white">物理仿真引擎</text>
<text text-anchor="middle" x="446" y="-597.4" font-family="Arial" font-size="11.00" fill="white">━━━━━━━━━━━━━━━━</text>
<text text-anchor="middle" x="446" y="-585.4" font-family="Arial" font-size="11.00" fill="white">动力学积分</text>
<text text-anchor="middle" x="446" y="-573.4" font-family="Arial" font-size="11.00" fill="white">碰撞检测</text>
<text text-anchor="middle" x="446" y="-561.4" font-family="Arial" font-size="11.00" fill="white">接触力计算</text>
</g>
<!-- rail_ch&#45;&gt;gazebo -->
<g id="edge26" class="edge">
<title>rail_ch&#45;&gt;gazebo</title>
<path fill="none" stroke="red" stroke-width="2" d="M531.41,-692.1C519.15,-678.19 502.59,-659.4 487.31,-642.07"/>
<polygon fill="red" stroke="red" stroke-width="2" points="489.64,-639.42 480.41,-634.23 484.39,-644.05 489.64,-639.42"/>
</g>
<!-- rot_ch&#45;&gt;gazebo -->
<g id="edge27" class="edge">
<title>rot_ch&#45;&gt;gazebo</title>
<path fill="none" stroke="green" stroke-width="2" d="M440.25,-692.1C441.04,-678.81 442.09,-661.08 443.08,-644.42"/>
<polygon fill="green" stroke="green" stroke-width="2" points="446.59,-644.42 443.68,-634.23 439.6,-644.01 446.59,-644.42"/>
</g>
<!-- gazebo&#45;&gt;fsm -->
<g id="edge34" class="edge">
<title>gazebo&#45;&gt;fsm</title>
<path fill="none" stroke="orange" stroke-dasharray="5,2" d="M383.97,-634.34C354.33,-653.04 319.9,-674.77 294.7,-690.67"/>
<polygon fill="orange" stroke="orange" points="292.78,-687.74 286.19,-696.04 296.52,-693.66 292.78,-687.74"/>
<text text-anchor="middle" x="372" y="-666.2" font-family="Arial" font-size="10.00">任务完成</text>
<text text-anchor="middle" x="372" y="-655.2" font-family="Arial" font-size="10.00">10Hz</text>
</g>
<!-- gazebo&#45;&gt;mpc -->
<g id="edge33" class="edge">
<title>gazebo&#45;&gt;mpc</title>
<path fill="none" stroke="orange" stroke-width="2" stroke-dasharray="5,2" d="M383.6,-554.08C379.02,-551.37 374.46,-548.72 370,-546.2 343.02,-530.92 336.4,-526.64 308,-514.2 291.88,-507.13 274.03,-500.26 257.6,-494.31"/>
<polygon fill="orange" stroke="orange" stroke-width="2" points="258.71,-490.99 248.12,-490.92 256.36,-497.58 258.71,-490.99"/>
<text text-anchor="middle" x="372" y="-528.2" font-family="Arial" font-size="10.00">状态反馈</text>
<text text-anchor="middle" x="372" y="-517.2" font-family="Arial" font-size="10.00">100Hz</text>
</g>
<!-- gazebo&#45;&gt;wbc -->
<g id="edge32" class="edge">
<title>gazebo&#45;&gt;wbc</title>
<path fill="none" stroke="orange" stroke-width="2" stroke-dasharray="5,2" d="M446.67,-553.9C446.93,-538.47 447.22,-521.01 447.47,-506.46"/>
<polygon fill="orange" stroke="orange" stroke-width="2" points="450.97,-506.51 447.64,-496.46 443.97,-506.4 450.97,-506.51"/>
<text text-anchor="middle" x="467" y="-528.2" font-family="Arial" font-size="10.00">状态反馈</text>
<text text-anchor="middle" x="467" y="-517.2" font-family="Arial" font-size="10.00">500Hz</text>
</g>
<!-- freq1 -->
<g id="node25" class="node">
<title>freq1</title>
<polygon fill="#e1f5fe" stroke="black" points="939,-830.2 883,-830.2 883,-794.2 945,-794.2 945,-824.2 939,-830.2"/>
<polyline fill="none" stroke="black" points="939,-830.2 939,-824.2 "/>
<polyline fill="none" stroke="black" points="945,-824.2 939,-824.2 "/>
<text text-anchor="middle" x="914" y="-815.4" font-family="Arial" font-size="11.00">10 Hz</text>
<text text-anchor="middle" x="914" y="-803.4" font-family="Arial" font-size="11.00">规划周期</text>
</g>
<!-- freq2 -->
<g id="node26" class="node">
<title>freq2</title>
<polygon fill="#fff3e0" stroke="black" points="944.5,-492.2 883.5,-492.2 883.5,-456.2 950.5,-456.2 950.5,-486.2 944.5,-492.2"/>
<polyline fill="none" stroke="black" points="944.5,-492.2 944.5,-486.2 "/>
<polyline fill="none" stroke="black" points="950.5,-486.2 944.5,-486.2 "/>
<text text-anchor="middle" x="917" y="-477.4" font-family="Arial" font-size="11.00">100 Hz</text>
<text text-anchor="middle" x="917" y="-465.4" font-family="Arial" font-size="11.00">MPC 周期</text>
</g>
<!-- freq3 -->
<g id="node27" class="node">
<title>freq3</title>
<polygon fill="#f1f8e9" stroke="black" points="1031,-492.2 969,-492.2 969,-456.2 1037,-456.2 1037,-486.2 1031,-492.2"/>
<polyline fill="none" stroke="black" points="1031,-492.2 1031,-486.2 "/>
<polyline fill="none" stroke="black" points="1037,-486.2 1031,-486.2 "/>
<text text-anchor="middle" x="1003" y="-477.4" font-family="Arial" font-size="11.00">500 Hz</text>
<text text-anchor="middle" x="1003" y="-465.4" font-family="Arial" font-size="11.00">WBC 周期</text>
</g>
<!-- freq4 -->
<g id="node28" class="node">
<title>freq4</title>
<polygon fill="#fce4ec" stroke="black" points="874,-36 818,-36 818,0 880,0 880,-30 874,-36"/>
<polyline fill="none" stroke="black" points="874,-36 874,-30 "/>
<polyline fill="none" stroke="black" points="880,-30 874,-30 "/>
<text text-anchor="middle" x="849" y="-21.2" font-family="Arial" font-size="11.00">1000 Hz</text>
<text text-anchor="middle" x="849" y="-9.2" font-family="Arial" font-size="11.00">执行周期</text>
</g>
</g>
</svg>
