<?xml version="1.0" encoding="UTF-8" standalone="no"?>
<!DOCTYPE svg PUBLIC "-//W3C//DTD SVG 1.1//EN"
 "http://www.w3.org/Graphics/SVG/1.1/DTD/svg11.dtd">
<!-- Generated by graphviz version 2.43.0 (0)
 -->
<!-- Title: Nullspace_Projection Pages: 1 -->
<svg width="1127pt" height="551pt"
 viewBox="0.00 0.00 1127.33 551.00" xmlns="http://www.w3.org/2000/svg" xmlns:xlink="http://www.w3.org/1999/xlink">
<g id="graph0" class="graph" transform="scale(1 1) rotate(0) translate(4 547)">
<title>Nullspace_Projection</title>
<polygon fill="white" stroke="transparent" points="-4,4 -4,-547 1123.33,-547 1123.33,4 -4,4"/>
<g id="clust1" class="cluster">
<title>cluster_primary</title>
<polygon fill="#a5d6a7" stroke="#a5d6a7" points="751.44,-8 751.44,-243 929.44,-243 929.44,-8 751.44,-8"/>
<text text-anchor="middle" x="840.44" y="-229.4" font-family="Arial Bold" font-size="12.00">主任务 Primary Tasks (m=12)</text>
</g>
<g id="clust2" class="cluster">
<title>cluster_secondary</title>
<polygon fill="#ffccbc" stroke="#ffccbc" points="455.17,-239 455.17,-474 668.17,-474 668.17,-239 455.17,-239"/>
<text text-anchor="middle" x="561.67" y="-460.4" font-family="Arial Bold" font-size="12.00">次级任务 Secondary Tasks (零空间)</text>
</g>
<!-- joint_space -->
<g id="node1" class="node">
<title>joint_space</title>
<path fill="#e3f2fd" stroke="black" stroke-width="3" d="M125,-303.5C125,-303.5 12,-303.5 12,-303.5 6,-303.5 0,-297.5 0,-291.5 0,-291.5 0,-216.5 0,-216.5 0,-210.5 6,-204.5 12,-204.5 12,-204.5 125,-204.5 125,-204.5 131,-204.5 137,-210.5 137,-216.5 137,-216.5 137,-291.5 137,-291.5 137,-297.5 131,-303.5 125,-303.5"/>
<text text-anchor="middle" x="68.5" y="-289.9" font-family="Arial" font-size="12.00">16 维关节空间</text>
<text text-anchor="middle" x="68.5" y="-276.9" font-family="Arial" font-size="12.00">Joint Space ℝ¹⁶</text>
<text text-anchor="middle" x="68.5" y="-263.9" font-family="Arial" font-size="12.00">━━━━━━━━━━━━━━━━</text>
<text text-anchor="middle" x="68.5" y="-250.9" font-family="Arial" font-size="12.00">4 导轨 (prismatic)</text>
<text text-anchor="middle" x="68.5" y="-237.9" font-family="Arial" font-size="12.00">12 旋转 (revolute)</text>
<text text-anchor="middle" x="68.5" y="-224.9" font-family="Arial" font-size="12.00">━━━━━━━━━━━━━━━━</text>
<text text-anchor="middle" x="68.5" y="-211.9" font-family="Arial" font-size="12.00">q = [q₁, q₂, ..., q₁₆]ᵀ</text>
</g>
<!-- null_space -->
<g id="node3" class="node">
<title>null_space</title>
<path fill="#fff9c4" stroke="black" stroke-width="3" d="M357.89,-368.5C357.89,-368.5 244.89,-368.5 244.89,-368.5 238.89,-368.5 232.89,-362.5 232.89,-356.5 232.89,-356.5 232.89,-281.5 232.89,-281.5 232.89,-275.5 238.89,-269.5 244.89,-269.5 244.89,-269.5 357.89,-269.5 357.89,-269.5 363.89,-269.5 369.89,-275.5 369.89,-281.5 369.89,-281.5 369.89,-356.5 369.89,-356.5 369.89,-362.5 363.89,-368.5 357.89,-368.5"/>
<text text-anchor="middle" x="301.39" y="-354.9" font-family="Arial" font-size="12.00">4 维零空间</text>
<text text-anchor="middle" x="301.39" y="-341.9" font-family="Arial" font-size="12.00">Null Space ℝ⁴</text>
<text text-anchor="middle" x="301.39" y="-328.9" font-family="Arial" font-size="12.00">━━━━━━━━━━━━━━━━</text>
<text text-anchor="middle" x="301.39" y="-315.9" font-family="Arial" font-size="12.00">冗余自由度</text>
<text text-anchor="middle" x="301.39" y="-302.9" font-family="Arial" font-size="12.00">━━━━━━━━━━━━━━━━</text>
<text text-anchor="middle" x="301.39" y="-289.9" font-family="Arial" font-size="12.00">N = I &#45; J†J</text>
<text text-anchor="middle" x="301.39" y="-276.9" font-family="Arial" font-size="12.00">rank(N) = 4</text>
</g>
<!-- joint_space&#45;&gt;null_space -->
<g id="edge9" class="edge">
<title>joint_space&#45;&gt;null_space</title>
<path fill="none" stroke="#ff6f00" stroke-width="2" stroke-dasharray="5,2" d="M137.21,-273.06C164.11,-280.64 195.21,-289.39 223,-297.21"/>
<polygon fill="#ff6f00" stroke="#ff6f00" stroke-width="2" points="222.1,-300.6 232.68,-299.94 224,-293.86 222.1,-300.6"/>
<text text-anchor="middle" x="175" y="-302" font-family="Arial" font-size="10.00">冗余度</text>
<text text-anchor="middle" x="175" y="-291" font-family="Arial" font-size="10.00">n &#45; m = 4</text>
</g>
<!-- jacobian -->
<g id="node12" class="node">
<title>jacobian</title>
<ellipse fill="#bbdefb" stroke="black" stroke-width="2" cx="301.39" cy="-189" rx="88.28" ry="39.7"/>
<text text-anchor="middle" x="301.39" y="-204.2" font-family="Arial" font-size="11.00">雅可比矩阵</text>
<text text-anchor="middle" x="301.39" y="-192.2" font-family="Arial" font-size="11.00">J(q) ∈ ℝ¹²ˣ¹⁶</text>
<text text-anchor="middle" x="301.39" y="-180.2" font-family="Arial" font-size="11.00">━━━━━━━━━━━━━━━━</text>
<text text-anchor="middle" x="301.39" y="-168.2" font-family="Arial" font-size="11.00">ẋ = J(q)q̇</text>
</g>
<!-- joint_space&#45;&gt;jacobian -->
<g id="edge1" class="edge">
<title>joint_space&#45;&gt;jacobian</title>
<path fill="none" stroke="blue" stroke-width="2" d="M137.21,-234.94C161.99,-227.96 190.33,-219.98 216.36,-212.66"/>
<polygon fill="blue" stroke="blue" stroke-width="2" points="217.54,-215.96 226.21,-209.88 215.64,-209.22 217.54,-215.96"/>
<text text-anchor="middle" x="175" y="-232" font-family="Arial" font-size="10.00">映射</text>
</g>
<!-- task_space -->
<g id="node2" class="node">
<title>task_space</title>
<path fill="#c8e6c9" stroke="black" stroke-width="3" d="M617.67,-131C617.67,-131 504.67,-131 504.67,-131 498.67,-131 492.67,-125 492.67,-119 492.67,-119 492.67,-57 492.67,-57 492.67,-51 498.67,-45 504.67,-45 504.67,-45 617.67,-45 617.67,-45 623.67,-45 629.67,-51 629.67,-57 629.67,-57 629.67,-119 629.67,-119 629.67,-125 623.67,-131 617.67,-131"/>
<text text-anchor="middle" x="561.17" y="-117.4" font-family="Arial" font-size="12.00">12 维任务空间</text>
<text text-anchor="middle" x="561.17" y="-104.4" font-family="Arial" font-size="12.00">Task Space ℝ¹²</text>
<text text-anchor="middle" x="561.17" y="-91.4" font-family="Arial" font-size="12.00">━━━━━━━━━━━━━━━━</text>
<text text-anchor="middle" x="561.17" y="-78.4" font-family="Arial" font-size="12.00">4 条腿 × 3D 位置</text>
<text text-anchor="middle" x="561.17" y="-65.4" font-family="Arial" font-size="12.00">━━━━━━━━━━━━━━━━</text>
<text text-anchor="middle" x="561.17" y="-52.4" font-family="Arial" font-size="12.00">ẋ = J(q)q̇</text>
</g>
<!-- foot1 -->
<g id="node4" class="node">
<title>foot1</title>
<path fill="#81c784" stroke="black" d="M859.44,-160C859.44,-160 820.44,-160 820.44,-160 814.44,-160 808.44,-154 808.44,-148 808.44,-148 808.44,-136 808.44,-136 808.44,-130 814.44,-124 820.44,-124 820.44,-124 859.44,-124 859.44,-124 865.44,-124 871.44,-130 871.44,-136 871.44,-136 871.44,-148 871.44,-148 871.44,-154 865.44,-160 859.44,-160"/>
<text text-anchor="middle" x="839.94" y="-145.2" font-family="Arial" font-size="11.00">腿 1 足端</text>
<text text-anchor="middle" x="839.94" y="-133.2" font-family="Arial" font-size="11.00">(x₁, y₁, z₁)</text>
</g>
<!-- task_space&#45;&gt;foot1 -->
<g id="edge3" class="edge">
<title>task_space&#45;&gt;foot1</title>
<path fill="none" stroke="black" d="M629.87,-101.21C682.62,-111.5 754.09,-125.44 798.32,-134.07"/>
<polygon fill="black" stroke="black" points="797.92,-137.56 808.41,-136.04 799.27,-130.69 797.92,-137.56"/>
</g>
<!-- foot2 -->
<g id="node5" class="node">
<title>foot2</title>
<path fill="#81c784" stroke="black" d="M860.44,-106C860.44,-106 819.44,-106 819.44,-106 813.44,-106 807.44,-100 807.44,-94 807.44,-94 807.44,-82 807.44,-82 807.44,-76 813.44,-70 819.44,-70 819.44,-70 860.44,-70 860.44,-70 866.44,-70 872.44,-76 872.44,-82 872.44,-82 872.44,-94 872.44,-94 872.44,-100 866.44,-106 860.44,-106"/>
<text text-anchor="middle" x="839.94" y="-91.2" font-family="Arial" font-size="11.00">腿 2 足端</text>
<text text-anchor="middle" x="839.94" y="-79.2" font-family="Arial" font-size="11.00">(x₂, y₂, z₂)</text>
</g>
<!-- task_space&#45;&gt;foot2 -->
<g id="edge4" class="edge">
<title>task_space&#45;&gt;foot2</title>
<path fill="none" stroke="black" d="M629.87,-88C682.17,-88 752.88,-88 797.2,-88"/>
<polygon fill="black" stroke="black" points="797.32,-91.5 807.32,-88 797.32,-84.5 797.32,-91.5"/>
</g>
<!-- foot3 -->
<g id="node6" class="node">
<title>foot3</title>
<path fill="#81c784" stroke="black" d="M860.44,-52C860.44,-52 819.44,-52 819.44,-52 813.44,-52 807.44,-46 807.44,-40 807.44,-40 807.44,-28 807.44,-28 807.44,-22 813.44,-16 819.44,-16 819.44,-16 860.44,-16 860.44,-16 866.44,-16 872.44,-22 872.44,-28 872.44,-28 872.44,-40 872.44,-40 872.44,-46 866.44,-52 860.44,-52"/>
<text text-anchor="middle" x="839.94" y="-37.2" font-family="Arial" font-size="11.00">腿 3 足端</text>
<text text-anchor="middle" x="839.94" y="-25.2" font-family="Arial" font-size="11.00">(x₃, y₃, z₃)</text>
</g>
<!-- task_space&#45;&gt;foot3 -->
<g id="edge5" class="edge">
<title>task_space&#45;&gt;foot3</title>
<path fill="none" stroke="black" d="M629.87,-74.79C682.28,-64.56 753.18,-50.73 797.48,-42.09"/>
<polygon fill="black" stroke="black" points="798.18,-45.52 807.32,-40.17 796.84,-38.65 798.18,-45.52"/>
</g>
<!-- foot4 -->
<g id="node7" class="node">
<title>foot4</title>
<path fill="#81c784" stroke="black" d="M860.44,-214C860.44,-214 819.44,-214 819.44,-214 813.44,-214 807.44,-208 807.44,-202 807.44,-202 807.44,-190 807.44,-190 807.44,-184 813.44,-178 819.44,-178 819.44,-178 860.44,-178 860.44,-178 866.44,-178 872.44,-184 872.44,-190 872.44,-190 872.44,-202 872.44,-202 872.44,-208 866.44,-214 860.44,-214"/>
<text text-anchor="middle" x="839.94" y="-199.2" font-family="Arial" font-size="11.00">腿 4 足端</text>
<text text-anchor="middle" x="839.94" y="-187.2" font-family="Arial" font-size="11.00">(x₄, y₄, z₄)</text>
</g>
<!-- task_space&#45;&gt;foot4 -->
<g id="edge6" class="edge">
<title>task_space&#45;&gt;foot4</title>
<path fill="none" stroke="black" d="M629.81,-118.99C665.6,-134.87 710.51,-153.97 751.44,-169 766.24,-174.43 782.69,-179.7 797.3,-184.13"/>
<polygon fill="black" stroke="black" points="796.5,-187.54 807.08,-187.05 798.5,-180.83 796.5,-187.54"/>
</g>
<!-- rail1 -->
<g id="node8" class="node">
<title>rail1</title>
<path fill="#ff8a65" stroke="black" stroke-width="2" d="M586.17,-445C586.17,-445 536.17,-445 536.17,-445 530.17,-445 524.17,-439 524.17,-433 524.17,-433 524.17,-421 524.17,-421 524.17,-415 530.17,-409 536.17,-409 536.17,-409 586.17,-409 586.17,-409 592.17,-409 598.17,-415 598.17,-421 598.17,-421 598.17,-433 598.17,-433 598.17,-439 592.17,-445 586.17,-445"/>
<text text-anchor="middle" x="561.17" y="-430.2" font-family="Arial" font-size="11.00">导轨 1 优化</text>
<text text-anchor="middle" x="561.17" y="-418.2" font-family="Arial" font-size="11.00">q₁ → 0.0m</text>
</g>
<!-- null_space&#45;&gt;rail1 -->
<g id="edge10" class="edge">
<title>null_space&#45;&gt;rail1</title>
<path fill="none" stroke="black" d="M369.97,-359.24C395.97,-373.54 426.33,-388.83 455.17,-400 473.97,-407.29 495.43,-413.2 514.03,-417.62"/>
<polygon fill="black" stroke="black" points="513.5,-421.09 524.03,-419.92 515.07,-414.27 513.5,-421.09"/>
</g>
<!-- rail2 -->
<g id="node9" class="node">
<title>rail2</title>
<path fill="#ff8a65" stroke="black" stroke-width="2" d="M586.17,-391C586.17,-391 536.17,-391 536.17,-391 530.17,-391 524.17,-385 524.17,-379 524.17,-379 524.17,-367 524.17,-367 524.17,-361 530.17,-355 536.17,-355 536.17,-355 586.17,-355 586.17,-355 592.17,-355 598.17,-361 598.17,-367 598.17,-367 598.17,-379 598.17,-379 598.17,-385 592.17,-391 586.17,-391"/>
<text text-anchor="middle" x="561.17" y="-376.2" font-family="Arial" font-size="11.00">导轨 2 优化</text>
<text text-anchor="middle" x="561.17" y="-364.2" font-family="Arial" font-size="11.00">q₅ → 0.0m</text>
</g>
<!-- null_space&#45;&gt;rail2 -->
<g id="edge11" class="edge">
<title>null_space&#45;&gt;rail2</title>
<path fill="none" stroke="black" d="M370.12,-333.19C415.4,-342.67 473.8,-354.91 513.84,-363.3"/>
<polygon fill="black" stroke="black" points="513.35,-366.77 523.86,-365.39 514.79,-359.92 513.35,-366.77"/>
</g>
<!-- rail3 -->
<g id="node10" class="node">
<title>rail3</title>
<path fill="#ff8a65" stroke="black" stroke-width="2" d="M586.17,-337C586.17,-337 536.17,-337 536.17,-337 530.17,-337 524.17,-331 524.17,-325 524.17,-325 524.17,-313 524.17,-313 524.17,-307 530.17,-301 536.17,-301 536.17,-301 586.17,-301 586.17,-301 592.17,-301 598.17,-307 598.17,-313 598.17,-313 598.17,-325 598.17,-325 598.17,-331 592.17,-337 586.17,-337"/>
<text text-anchor="middle" x="561.17" y="-322.2" font-family="Arial" font-size="11.00">导轨 3 优化</text>
<text text-anchor="middle" x="561.17" y="-310.2" font-family="Arial" font-size="11.00">q₉ → 0.0m</text>
</g>
<!-- null_space&#45;&gt;rail3 -->
<g id="edge12" class="edge">
<title>null_space&#45;&gt;rail3</title>
<path fill="none" stroke="black" d="M370.12,-319C415.4,-319 473.8,-319 513.84,-319"/>
<polygon fill="black" stroke="black" points="513.86,-322.5 523.86,-319 513.86,-315.5 513.86,-322.5"/>
</g>
<!-- rail4 -->
<g id="node11" class="node">
<title>rail4</title>
<path fill="#ff8a65" stroke="black" stroke-width="2" d="M586.17,-283C586.17,-283 536.17,-283 536.17,-283 530.17,-283 524.17,-277 524.17,-271 524.17,-271 524.17,-259 524.17,-259 524.17,-253 530.17,-247 536.17,-247 536.17,-247 586.17,-247 586.17,-247 592.17,-247 598.17,-253 598.17,-259 598.17,-259 598.17,-271 598.17,-271 598.17,-277 592.17,-283 586.17,-283"/>
<text text-anchor="middle" x="561.17" y="-268.2" font-family="Arial" font-size="11.00">导轨 4 优化</text>
<text text-anchor="middle" x="561.17" y="-256.2" font-family="Arial" font-size="11.00">q₁₃ → 0.0m</text>
</g>
<!-- null_space&#45;&gt;rail4 -->
<g id="edge13" class="edge">
<title>null_space&#45;&gt;rail4</title>
<path fill="none" stroke="black" d="M370.12,-304.81C415.4,-295.33 473.8,-283.09 513.84,-274.7"/>
<polygon fill="black" stroke="black" points="514.79,-278.08 523.86,-272.61 513.35,-271.23 514.79,-278.08"/>
</g>
<!-- final_cmd -->
<g id="node15" class="node">
<title>final_cmd</title>
<path fill="#4db6ac" stroke="black" stroke-width="3" d="M1107.33,-172C1107.33,-172 994.33,-172 994.33,-172 988.33,-172 982.33,-166 982.33,-160 982.33,-160 982.33,-124 982.33,-124 982.33,-118 988.33,-112 994.33,-112 994.33,-112 1107.33,-112 1107.33,-112 1113.33,-112 1119.33,-118 1119.33,-124 1119.33,-124 1119.33,-160 1119.33,-160 1119.33,-166 1113.33,-172 1107.33,-172"/>
<text text-anchor="middle" x="1050.83" y="-158.4" font-family="Arial" font-size="12.00" fill="white">最终关节指令</text>
<text text-anchor="middle" x="1050.83" y="-145.4" font-family="Arial" font-size="12.00" fill="white">q̇ = J†ẋ + Nq̇ₛ</text>
<text text-anchor="middle" x="1050.83" y="-132.4" font-family="Arial" font-size="12.00" fill="white">━━━━━━━━━━━━━━━━</text>
<text text-anchor="middle" x="1050.83" y="-119.4" font-family="Arial" font-size="12.00" fill="white">主任务 + 次级任务</text>
</g>
<!-- foot1&#45;&gt;final_cmd -->
<g id="edge14" class="edge">
<title>foot1&#45;&gt;final_cmd</title>
<path fill="none" stroke="green" stroke-width="2" d="M871.76,-142C898.1,-142 937.15,-142 971.98,-142"/>
<polygon fill="green" stroke="green" stroke-width="2" points="972.15,-145.5 982.15,-142 972.15,-138.5 972.15,-145.5"/>
<text text-anchor="middle" x="955.83" y="-145" font-family="Arial" font-size="10.00">J†ẋ</text>
</g>
<!-- foot2&#45;&gt;final_cmd -->
<g id="edge15" class="edge">
<title>foot2&#45;&gt;final_cmd</title>
<path fill="none" stroke="green" stroke-width="2" d="M872.67,-96.2C899.05,-103.02 937.73,-113.02 972.22,-121.94"/>
<polygon fill="green" stroke="green" stroke-width="2" points="971.74,-125.43 982.29,-124.54 973.49,-118.65 971.74,-125.43"/>
</g>
<!-- foot3&#45;&gt;final_cmd -->
<g id="edge16" class="edge">
<title>foot3&#45;&gt;final_cmd</title>
<path fill="none" stroke="green" stroke-width="2" d="M872.5,-41.2C889.79,-45.73 911.31,-52.37 929.44,-61 955.15,-73.23 981.61,-90.45 1003.16,-105.86"/>
<polygon fill="green" stroke="green" stroke-width="2" points="1001.32,-108.85 1011.47,-111.89 1005.43,-103.19 1001.32,-108.85"/>
</g>
<!-- foot4&#45;&gt;final_cmd -->
<g id="edge17" class="edge">
<title>foot4&#45;&gt;final_cmd</title>
<path fill="none" stroke="green" stroke-width="2" d="M872.67,-187.8C899.05,-180.98 937.73,-170.98 972.22,-162.06"/>
<polygon fill="green" stroke="green" stroke-width="2" points="973.49,-165.35 982.29,-159.46 971.74,-158.57 973.49,-165.35"/>
</g>
<!-- projector -->
<g id="node14" class="node">
<title>projector</title>
<ellipse fill="#fff59d" stroke="black" stroke-width="3" cx="839.94" cy="-309" rx="88.28" ry="48.17"/>
<text text-anchor="middle" x="839.94" y="-330.2" font-family="Arial" font-size="11.00">投影矩阵</text>
<text text-anchor="middle" x="839.94" y="-318.2" font-family="Arial" font-size="11.00">N(q) ∈ ℝ¹⁶ˣ¹⁶</text>
<text text-anchor="middle" x="839.94" y="-306.2" font-family="Arial" font-size="11.00">━━━━━━━━━━━━━━━━</text>
<text text-anchor="middle" x="839.94" y="-294.2" font-family="Arial" font-size="11.00">N = I &#45; J†J</text>
<text text-anchor="middle" x="839.94" y="-282.2" font-family="Arial" font-size="11.00">N² = N</text>
</g>
<!-- rail1&#45;&gt;projector -->
<g id="edge18" class="edge">
<title>rail1&#45;&gt;projector</title>
<path fill="none" stroke="red" stroke-width="2" d="M598.65,-419.98C619.41,-415.42 645.68,-408.71 668.17,-400 703.52,-386.31 740.89,-367 771.64,-349.69"/>
<polygon fill="red" stroke="red" stroke-width="2" points="773.57,-352.62 780.54,-344.63 770.11,-346.53 773.57,-352.62"/>
</g>
<!-- rail2&#45;&gt;projector -->
<g id="edge19" class="edge">
<title>rail2&#45;&gt;projector</title>
<path fill="none" stroke="red" stroke-width="2" d="M598.35,-364.63C636.27,-355.86 697.34,-341.74 748.45,-329.92"/>
<polygon fill="red" stroke="red" stroke-width="2" points="749.25,-333.33 758.2,-327.67 747.67,-326.51 749.25,-333.33"/>
</g>
<!-- rail3&#45;&gt;projector -->
<g id="edge20" class="edge">
<title>rail3&#45;&gt;projector</title>
<path fill="none" stroke="red" stroke-width="2" d="M598.35,-317.69C634.54,-316.39 691.8,-314.32 741.38,-312.52"/>
<polygon fill="red" stroke="red" stroke-width="2" points="741.64,-316.02 751.51,-312.16 741.39,-309.02 741.64,-316.02"/>
</g>
<!-- rail4&#45;&gt;projector -->
<g id="edge21" class="edge">
<title>rail4&#45;&gt;projector</title>
<path fill="none" stroke="red" stroke-width="2" d="M598.35,-270.75C635.44,-276.65 694.66,-286.06 745.07,-294.08"/>
<polygon fill="red" stroke="red" stroke-width="2" points="744.59,-297.55 755.02,-295.66 745.69,-290.63 744.59,-297.55"/>
</g>
<!-- jacobian&#45;&gt;task_space -->
<g id="edge2" class="edge">
<title>jacobian&#45;&gt;task_space</title>
<path fill="none" stroke="blue" stroke-width="2" d="M368.44,-163.12C403.36,-149.44 446.42,-132.57 482.89,-118.28"/>
<polygon fill="blue" stroke="blue" stroke-width="2" points="484.46,-121.42 492.49,-114.52 481.9,-114.9 484.46,-121.42"/>
<text text-anchor="middle" x="422.78" y="-150" font-family="Arial" font-size="10.00">ẋ = Jq̇</text>
</g>
<!-- pseudoinv -->
<g id="node13" class="node">
<title>pseudoinv</title>
<ellipse fill="#ce93d8" stroke="black" stroke-width="2" cx="561.17" cy="-189" rx="88.28" ry="39.7"/>
<text text-anchor="middle" x="561.17" y="-204.2" font-family="Arial" font-size="11.00">伪逆</text>
<text text-anchor="middle" x="561.17" y="-192.2" font-family="Arial" font-size="11.00">J†(q) ∈ ℝ¹⁶ˣ¹²</text>
<text text-anchor="middle" x="561.17" y="-180.2" font-family="Arial" font-size="11.00">━━━━━━━━━━━━━━━━</text>
<text text-anchor="middle" x="561.17" y="-168.2" font-family="Arial" font-size="11.00">J† = Jᵀ(JJᵀ)⁻¹</text>
</g>
<!-- jacobian&#45;&gt;pseudoinv -->
<g id="edge7" class="edge">
<title>jacobian&#45;&gt;pseudoinv</title>
<path fill="none" stroke="purple" stroke-width="2" d="M390.02,-189C413.39,-189 438.79,-189 462.65,-189"/>
<polygon fill="purple" stroke="purple" stroke-width="2" points="462.78,-192.5 472.78,-189 462.78,-185.5 462.78,-192.5"/>
<text text-anchor="middle" x="422.78" y="-192" font-family="Arial" font-size="10.00">求伪逆</text>
</g>
<!-- pseudoinv&#45;&gt;projector -->
<g id="edge8" class="edge">
<title>pseudoinv&#45;&gt;projector</title>
<path fill="none" stroke="orange" stroke-width="2" d="M625.32,-216.38C665.6,-233.84 718.1,-256.61 760.97,-275.2"/>
<polygon fill="orange" stroke="orange" stroke-width="2" points="759.68,-278.45 770.25,-279.22 762.46,-272.03 759.68,-278.45"/>
<text text-anchor="middle" x="709.55" y="-266" font-family="Arial" font-size="10.00">N = I &#45; J†J</text>
</g>
<!-- projector&#45;&gt;final_cmd -->
<g id="edge22" class="edge">
<title>projector&#45;&gt;final_cmd</title>
<path fill="none" stroke="red" stroke-width="2" d="M896.36,-271.52C907.48,-263.64 918.95,-255.21 929.44,-247 957.01,-225.42 986.66,-199.59 1009.64,-178.95"/>
<polygon fill="red" stroke="red" stroke-width="2" points="1012.08,-181.46 1017.16,-172.17 1007.39,-176.27 1012.08,-181.46"/>
<text text-anchor="middle" x="955.83" y="-233" font-family="Arial" font-size="10.00">Nq̇ₛ</text>
</g>
<!-- property1 -->
<g id="node16" class="node">
<title>property1</title>
<polygon fill="#e8f5e9" stroke="black" points="887.44,-419 786.44,-419 786.44,-375 893.44,-375 893.44,-413 887.44,-419"/>
<polyline fill="none" stroke="black" points="887.44,-419 887.44,-413 "/>
<polyline fill="none" stroke="black" points="893.44,-413 887.44,-413 "/>
<text text-anchor="middle" x="839.94" y="-406.2" font-family="Arial" font-size="11.00">关键性质 1:</text>
<text text-anchor="middle" x="839.94" y="-394.2" font-family="Arial" font-size="11.00">JN = 0</text>
<text text-anchor="middle" x="839.94" y="-382.2" font-family="Arial" font-size="11.00">零空间不影响任务</text>
</g>
<!-- property2 -->
<g id="node17" class="node">
<title>property2</title>
<polygon fill="#fff3e0" stroke="black" points="870.94,-481 802.94,-481 802.94,-437 876.94,-437 876.94,-475 870.94,-481"/>
<polyline fill="none" stroke="black" points="870.94,-481 870.94,-475 "/>
<polyline fill="none" stroke="black" points="876.94,-475 870.94,-475 "/>
<text text-anchor="middle" x="839.94" y="-468.2" font-family="Arial" font-size="11.00">关键性质 2:</text>
<text text-anchor="middle" x="839.94" y="-456.2" font-family="Arial" font-size="11.00">N² = N</text>
<text text-anchor="middle" x="839.94" y="-444.2" font-family="Arial" font-size="11.00">投影幂等性</text>
</g>
<!-- property3 -->
<g id="node18" class="node">
<title>property3</title>
<polygon fill="#fce4ec" stroke="black" points="879.44,-543 794.44,-543 794.44,-499 885.44,-499 885.44,-537 879.44,-543"/>
<polyline fill="none" stroke="black" points="879.44,-543 879.44,-537 "/>
<polyline fill="none" stroke="black" points="885.44,-537 879.44,-537 "/>
<text text-anchor="middle" x="839.94" y="-530.2" font-family="Arial" font-size="11.00">关键性质 3:</text>
<text text-anchor="middle" x="839.94" y="-518.2" font-family="Arial" font-size="11.00">rank(N) = n &#45; m</text>
<text text-anchor="middle" x="839.94" y="-506.2" font-family="Arial" font-size="11.00">冗余度 = 4</text>
</g>
</g>
</svg>
