<?xml version="1.0" encoding="UTF-8" standalone="no"?>
<!DOCTYPE svg PUBLIC "-//W3C//DTD SVG 1.1//EN"
 "http://www.w3.org/Graphics/SVG/1.1/DTD/svg11.dtd">
<!-- Generated by graphviz version 2.43.0 (0)
 -->
<!-- Title: Kinematics_Topology Pages: 1 -->
<svg width="1538pt" height="309pt"
 viewBox="0.00 0.00 1537.75 308.95" xmlns="http://www.w3.org/2000/svg" xmlns:xlink="http://www.w3.org/1999/xlink">
<g id="graph0" class="graph" transform="scale(1 1) rotate(0) translate(4 304.95)">
<title>Kinematics_Topology</title>
<polygon fill="white" stroke="transparent" points="-4,4 -4,-304.95 1533.75,-304.95 1533.75,4 -4,4"/>
<!-- base -->
<g id="node1" class="node">
<title>base</title>
<path fill="#e1f5fe" stroke="black" stroke-width="3" d="M125,-258C125,-258 12,-258 12,-258 6,-258 0,-252 0,-246 0,-246 0,-206 0,-206 0,-200 6,-194 12,-194 12,-194 125,-194 125,-194 131,-194 137,-200 137,-206 137,-206 137,-246 137,-246 137,-252 131,-258 125,-258"/>
<text text-anchor="middle" x="68.5" y="-243.6" font-family="Arial" font-size="13.00">躯干 Base Link</text>
<text text-anchor="middle" x="68.5" y="-229.6" font-family="Arial" font-size="13.00">━━━━━━━━━━━━━━━━</text>
<text text-anchor="middle" x="68.5" y="-215.6" font-family="Arial" font-size="13.00">固定参考系</text>
<text text-anchor="middle" x="68.5" y="-201.6" font-family="Arial" font-size="13.00">World Frame</text>
</g>
<!-- rail -->
<g id="node2" class="node">
<title>rail</title>
<path fill="#ffcccc" stroke="#ff0000" stroke-width="4" stroke-dasharray="5,2" d="M410,-286C410,-286 276,-286 276,-286 270,-286 264,-280 264,-274 264,-274 264,-178 264,-178 264,-172 270,-166 276,-166 276,-166 410,-166 410,-166 416,-166 422,-172 422,-178 422,-178 422,-274 422,-274 422,-280 416,-286 410,-286"/>
<text text-anchor="middle" x="343" y="-271.6" font-family="Arial" font-size="13.00">直线导轨</text>
<text text-anchor="middle" x="343" y="-257.6" font-family="Arial" font-size="13.00">Prismatic Joint</text>
<text text-anchor="middle" x="343" y="-243.6" font-family="Arial" font-size="13.00">━━━━━━━━━━━━━━━━</text>
<text text-anchor="middle" x="343" y="-229.6" font-family="Arial" font-size="13.00">🔴 创新点: 扩展工作空间</text>
<text text-anchor="middle" x="343" y="-215.6" font-family="Arial" font-size="13.00">━━━━━━━━━━━━━━━━</text>
<text text-anchor="middle" x="343" y="-201.6" font-family="Arial" font-size="13.00">参数: s (位移)</text>
<text text-anchor="middle" x="343" y="-187.6" font-family="Arial" font-size="13.00">范围: ±0.5m</text>
<text text-anchor="middle" x="343" y="-173.6" font-family="Arial" font-size="13.00">类型: Prismatic DOF</text>
</g>
<!-- base&#45;&gt;rail -->
<g id="edge1" class="edge">
<title>base&#45;&gt;rail</title>
<path fill="none" stroke="#ff0000" stroke-width="3" d="M137.21,-226C172.22,-226 215.4,-226 253.06,-226"/>
<polygon fill="#ff0000" stroke="#ff0000" stroke-width="3" points="253.53,-229.5 263.53,-226 253.53,-222.5 253.53,-229.5"/>
<text text-anchor="middle" x="200.5" y="-242.4" font-family="Arial" font-size="12.00" fill="#d32f2f"> &#160;位移参数 s</text>
<text text-anchor="middle" x="200.5" y="-229.4" font-family="Arial" font-size="12.00" fill="#d32f2f"> &#160;Prismatic DOF &#160;</text>
</g>
<!-- redundancy -->
<g id="node7" class="node">
<title>redundancy</title>
<polygon fill="#e8eaf6" stroke="#3f51b5" stroke-width="2" points="125,-158 6,-158 6,-54 131,-54 131,-152 125,-158"/>
<polyline fill="none" stroke="#3f51b5" stroke-width="2" points="125,-158 125,-152 "/>
<polyline fill="none" stroke="#3f51b5" stroke-width="2" points="131,-152 125,-152 "/>
<text text-anchor="middle" x="68.5" y="-145.2" font-family="Arial" font-size="11.00">冗余度分析</text>
<text text-anchor="middle" x="68.5" y="-133.2" font-family="Arial" font-size="11.00">━━━━━━━━━━━━━━━━</text>
<text text-anchor="middle" x="68.5" y="-121.2" font-family="Arial" font-size="11.00">总自由度: n = 4</text>
<text text-anchor="middle" x="68.5" y="-109.2" font-family="Arial" font-size="11.00">任务空间: m = 3</text>
<text text-anchor="middle" x="68.5" y="-97.2" font-family="Arial" font-size="11.00">冗余度: r = n &#45; m = 1</text>
<text text-anchor="middle" x="68.5" y="-85.2" font-family="Arial" font-size="11.00">━━━━━━━━━━━━━━━━</text>
<text text-anchor="middle" x="68.5" y="-73.2" font-family="Arial" font-size="11.00">解的特性: 无穷多解</text>
<text text-anchor="middle" x="68.5" y="-61.2" font-family="Arial" font-size="11.00">解空间: 1 维流形</text>
</g>
<!-- base&#45;&gt;redundancy -->
<g id="edge8" class="edge">
<title>base&#45;&gt;redundancy</title>
<path fill="none" stroke="#3f51b5" stroke-dasharray="5,2" d="M68.5,-193.87C68.5,-181.93 68.5,-169.98 68.5,-158.03"/>
</g>
<!-- haa -->
<g id="node3" class="node">
<title>haa</title>
<path fill="#fff3e0" stroke="#f57c00" stroke-width="3" d="M684,-269C684,-269 559,-269 559,-269 553,-269 547,-263 547,-257 547,-257 547,-195 547,-195 547,-189 553,-183 559,-183 559,-183 684,-183 684,-183 690,-183 696,-189 696,-195 696,-195 696,-257 696,-257 696,-263 690,-269 684,-269"/>
<text text-anchor="middle" x="621.5" y="-255.4" font-family="Arial" font-size="12.00">HAA 髋部侧展关节</text>
<text text-anchor="middle" x="621.5" y="-242.4" font-family="Arial" font-size="12.00">Hip Abduction/Adduction</text>
<text text-anchor="middle" x="621.5" y="-229.4" font-family="Arial" font-size="12.00">━━━━━━━━━━━━━━━━</text>
<text text-anchor="middle" x="621.5" y="-216.4" font-family="Arial" font-size="12.00">参数: θ_haa (侧摆角)</text>
<text text-anchor="middle" x="621.5" y="-203.4" font-family="Arial" font-size="12.00">范围: ±45°</text>
<text text-anchor="middle" x="621.5" y="-190.4" font-family="Arial" font-size="12.00">类型: Revolute DOF</text>
</g>
<!-- rail&#45;&gt;haa -->
<g id="edge2" class="edge">
<title>rail&#45;&gt;haa</title>
<path fill="none" stroke="#f57c00" stroke-width="3" d="M422.13,-226C457.89,-226 500.32,-226 536.74,-226"/>
<polygon fill="#f57c00" stroke="#f57c00" stroke-width="3" points="536.84,-229.5 546.84,-226 536.84,-222.5 536.84,-229.5"/>
<text text-anchor="middle" x="484.5" y="-242.4" font-family="Arial" font-size="12.00" fill="#e65100"> &#160;侧摆角 θ_haa</text>
<text text-anchor="middle" x="484.5" y="-229.4" font-family="Arial" font-size="12.00" fill="#e65100"> &#160;Revolute DOF &#160;</text>
</g>
<!-- innovation -->
<g id="node9" class="node">
<title>innovation</title>
<polygon fill="#ffebee" stroke="#c62828" stroke-width="3" points="399.5,-130 280.5,-130 280.5,-50 405.5,-50 405.5,-124 399.5,-130"/>
<polyline fill="none" stroke="#c62828" stroke-width="3" points="399.5,-130 399.5,-124 "/>
<polyline fill="none" stroke="#c62828" stroke-width="3" points="405.5,-124 399.5,-124 "/>
<text text-anchor="middle" x="343" y="-117.2" font-family="Arial" font-size="11.00">硬件创新</text>
<text text-anchor="middle" x="343" y="-105.2" font-family="Arial" font-size="11.00">━━━━━━━━━━━━━━━━</text>
<text text-anchor="middle" x="343" y="-93.2" font-family="Arial" font-size="11.00">✓ 工作空间扩展 50%</text>
<text text-anchor="middle" x="343" y="-81.2" font-family="Arial" font-size="11.00">✓ 非接触式穿越窗框</text>
<text text-anchor="middle" x="343" y="-69.2" font-family="Arial" font-size="11.00">✓ 奇异性避免</text>
<text text-anchor="middle" x="343" y="-57.2" font-family="Arial" font-size="11.00">✓ 灵活性提升</text>
</g>
<!-- rail&#45;&gt;innovation -->
<g id="edge6" class="edge">
<title>rail&#45;&gt;innovation</title>
<path fill="none" stroke="#ff0000" stroke-dasharray="5,2" d="M343,-165.69C343,-153.83 343,-141.97 343,-130.11"/>
</g>
<!-- hfe -->
<g id="node4" class="node">
<title>hfe</title>
<path fill="#f3e5f5" stroke="#7b1fa2" stroke-width="3" d="M946,-269C946,-269 833,-269 833,-269 827,-269 821,-263 821,-257 821,-257 821,-195 821,-195 821,-189 827,-183 833,-183 833,-183 946,-183 946,-183 952,-183 958,-189 958,-195 958,-195 958,-257 958,-257 958,-263 952,-269 946,-269"/>
<text text-anchor="middle" x="889.5" y="-255.4" font-family="Arial" font-size="12.00">HFE 大腿俯仰关节</text>
<text text-anchor="middle" x="889.5" y="-242.4" font-family="Arial" font-size="12.00">Hip Flexion/Extension</text>
<text text-anchor="middle" x="889.5" y="-229.4" font-family="Arial" font-size="12.00">━━━━━━━━━━━━━━━━</text>
<text text-anchor="middle" x="889.5" y="-216.4" font-family="Arial" font-size="12.00">参数: θ_hfe (俯仰角)</text>
<text text-anchor="middle" x="889.5" y="-203.4" font-family="Arial" font-size="12.00">范围: ±90°</text>
<text text-anchor="middle" x="889.5" y="-190.4" font-family="Arial" font-size="12.00">类型: Revolute DOF</text>
</g>
<!-- haa&#45;&gt;hfe -->
<g id="edge3" class="edge">
<title>haa&#45;&gt;hfe</title>
<path fill="none" stroke="#7b1fa2" stroke-width="3" d="M696.24,-226C731.94,-226 774.8,-226 810.98,-226"/>
<polygon fill="#7b1fa2" stroke="#7b1fa2" stroke-width="3" points="810.99,-229.5 820.99,-226 810.99,-222.5 810.99,-229.5"/>
<text text-anchor="middle" x="758.5" y="-242.4" font-family="Arial" font-size="12.00" fill="#4a148c"> &#160;俯仰角 θ_hfe</text>
<text text-anchor="middle" x="758.5" y="-229.4" font-family="Arial" font-size="12.00" fill="#4a148c"> &#160;Revolute DOF &#160;</text>
</g>
<!-- kfe -->
<g id="node5" class="node">
<title>kfe</title>
<path fill="#e8f5e9" stroke="#388e3c" stroke-width="3" d="M1215,-269C1215,-269 1095,-269 1095,-269 1089,-269 1083,-263 1083,-257 1083,-257 1083,-195 1083,-195 1083,-189 1089,-183 1095,-183 1095,-183 1215,-183 1215,-183 1221,-183 1227,-189 1227,-195 1227,-195 1227,-257 1227,-257 1227,-263 1221,-269 1215,-269"/>
<text text-anchor="middle" x="1155" y="-255.4" font-family="Arial" font-size="12.00">KFE 小腿膝关节</text>
<text text-anchor="middle" x="1155" y="-242.4" font-family="Arial" font-size="12.00">Knee Flexion/Extension</text>
<text text-anchor="middle" x="1155" y="-229.4" font-family="Arial" font-size="12.00">━━━━━━━━━━━━━━━━</text>
<text text-anchor="middle" x="1155" y="-216.4" font-family="Arial" font-size="12.00">参数: θ_kfe (俯仰角)</text>
<text text-anchor="middle" x="1155" y="-203.4" font-family="Arial" font-size="12.00">范围: ±120°</text>
<text text-anchor="middle" x="1155" y="-190.4" font-family="Arial" font-size="12.00">类型: Revolute DOF</text>
</g>
<!-- hfe&#45;&gt;kfe -->
<g id="edge4" class="edge">
<title>hfe&#45;&gt;kfe</title>
<path fill="none" stroke="#388e3c" stroke-width="3" d="M958.02,-226C993,-226 1035.98,-226 1072.77,-226"/>
<polygon fill="#388e3c" stroke="#388e3c" stroke-width="3" points="1072.97,-229.5 1082.97,-226 1072.97,-222.5 1072.97,-229.5"/>
<text text-anchor="middle" x="1020.5" y="-242.4" font-family="Arial" font-size="12.00" fill="#1b5e20"> &#160;俯仰角 θ_kfe</text>
<text text-anchor="middle" x="1020.5" y="-229.4" font-family="Arial" font-size="12.00" fill="#1b5e20"> &#160;Revolute DOF &#160;</text>
</g>
<!-- foot -->
<g id="node6" class="node">
<title>foot</title>
<ellipse fill="#fff9c4" stroke="#f57f17" stroke-width="4" cx="1432.87" cy="-226" rx="96.75" ry="74.91"/>
<text text-anchor="middle" x="1432.87" y="-264.6" font-family="Arial" font-size="13.00">足端末端执行器</text>
<text text-anchor="middle" x="1432.87" y="-250.6" font-family="Arial" font-size="13.00">End Effector</text>
<text text-anchor="middle" x="1432.87" y="-236.6" font-family="Arial" font-size="13.00">━━━━━━━━━━━━━━━━</text>
<text text-anchor="middle" x="1432.87" y="-222.6" font-family="Arial" font-size="13.00">目标: 3D 位置</text>
<text text-anchor="middle" x="1432.87" y="-208.6" font-family="Arial" font-size="13.00">(x, y, z)</text>
<text text-anchor="middle" x="1432.87" y="-194.6" font-family="Arial" font-size="13.00">━━━━━━━━━━━━━━━━</text>
<text text-anchor="middle" x="1432.87" y="-180.6" font-family="Arial" font-size="13.00">任务空间维度: m = 3</text>
</g>
<!-- kfe&#45;&gt;foot -->
<g id="edge5" class="edge">
<title>kfe&#45;&gt;foot</title>
<path fill="none" stroke="#f57f17" stroke-width="3" d="M1227.04,-226C1257.07,-226 1292.66,-226 1325.69,-226"/>
<polygon fill="#f57f17" stroke="#f57f17" stroke-width="3" points="1325.85,-229.5 1335.85,-226 1325.85,-222.5 1325.85,-229.5"/>
<text text-anchor="middle" x="1281.5" y="-242.4" font-family="Arial" font-size="12.00" fill="#e65100"> &#160;足端位置</text>
<text text-anchor="middle" x="1281.5" y="-229.4" font-family="Arial" font-size="12.00" fill="#e65100"> &#160;p = [x, y, z]ᵀ &#160;</text>
</g>
<!-- strategy -->
<g id="node8" class="node">
<title>strategy</title>
<polygon fill="#fff3e0" stroke="#ff6f00" stroke-width="2" points="1490.87,-116 1368.87,-116 1368.87,0 1496.87,0 1496.87,-110 1490.87,-116"/>
<polyline fill="none" stroke="#ff6f00" stroke-width="2" points="1490.87,-116 1490.87,-110 "/>
<polyline fill="none" stroke="#ff6f00" stroke-width="2" points="1496.87,-110 1490.87,-110 "/>
<text text-anchor="middle" x="1432.87" y="-103.2" font-family="Arial" font-size="11.00">降维策略</text>
<text text-anchor="middle" x="1432.87" y="-91.2" font-family="Arial" font-size="11.00">━━━━━━━━━━━━━━━━</text>
<text text-anchor="middle" x="1432.87" y="-79.2" font-family="Arial" font-size="11.00">策略 1: 导轨锁定 (s=0)</text>
<text text-anchor="middle" x="1432.87" y="-67.2" font-family="Arial" font-size="11.00"> &#160;→ 降维为 3&#45;DOF</text>
<text text-anchor="middle" x="1432.87" y="-55.2" font-family="Arial" font-size="11.00"> &#160;→ 解析解，实时性好</text>
<text text-anchor="middle" x="1432.87" y="-43.2" font-family="Arial" font-size="11.00">━━━━━━━━━━━━━━━━</text>
<text text-anchor="middle" x="1432.87" y="-31.2" font-family="Arial" font-size="11.00">策略 2: 零空间优化</text>
<text text-anchor="middle" x="1432.87" y="-19.2" font-family="Arial" font-size="11.00"> &#160;→ 充分利用冗余度</text>
<text text-anchor="middle" x="1432.87" y="-7.2" font-family="Arial" font-size="11.00"> &#160;→ 优化次级任务</text>
</g>
<!-- foot&#45;&gt;strategy -->
<g id="edge7" class="edge">
<title>foot&#45;&gt;strategy</title>
<path fill="none" stroke="#f57f17" stroke-dasharray="5,2" d="M1432.87,-150.86C1432.87,-139.26 1432.87,-127.67 1432.87,-116.08"/>
</g>
</g>
</svg>
