<?xml version="1.0" encoding="UTF-8" standalone="no"?>
<!DOCTYPE svg PUBLIC "-//W3C//DTD SVG 1.1//EN"
 "http://www.w3.org/Graphics/SVG/1.1/DTD/svg11.dtd">
<!-- Generated by graphviz version 2.43.0 (0)
 -->
<!-- Title: Redundancy_Comparison Pages: 1 -->
<svg width="691pt" height="577pt"
 viewBox="0.00 0.00 690.50 577.00" xmlns="http://www.w3.org/2000/svg" xmlns:xlink="http://www.w3.org/1999/xlink">
<g id="graph0" class="graph" transform="scale(1 1) rotate(0) translate(4 573)">
<title>Redundancy_Comparison</title>
<polygon fill="white" stroke="transparent" points="-4,4 -4,-573 686.5,-573 686.5,4 -4,4"/>
<g id="clust1" class="cluster">
<title>cluster_problem</title>
<polygon fill="#ffebee" stroke="#ffebee" points="126.5,-258 126.5,-457 364.5,-457 364.5,-258 126.5,-258"/>
<text text-anchor="middle" x="245.5" y="-442.6" font-family="Arial Bold" font-size="13.00">问题：无穷多解</text>
</g>
<!-- title -->
<g id="node1" class="node">
<title>title</title>
<path fill="lightgrey" stroke="transparent" d="M344,-544.5C344,-544.5 147,-544.5 147,-544.5 141,-544.5 135,-538.5 135,-532.5 135,-532.5 135,-520.5 135,-520.5 135,-514.5 141,-508.5 147,-508.5 147,-508.5 344,-508.5 344,-508.5 350,-508.5 356,-514.5 356,-520.5 356,-520.5 356,-532.5 356,-532.5 356,-538.5 350,-544.5 344,-544.5"/>
<text text-anchor="middle" x="245.5" y="-522.7" font-family="Arial Bold" font-size="16.00">冗余运动学：问题与解决方案</text>
</g>
<!-- problem -->
<g id="node2" class="node">
<title>problem</title>
<path fill="#ffcdd2" stroke="black" d="M344.5,-427C344.5,-427 146.5,-427 146.5,-427 140.5,-427 134.5,-421 134.5,-415 134.5,-415 134.5,-371 134.5,-371 134.5,-365 140.5,-359 146.5,-359 146.5,-359 344.5,-359 344.5,-359 350.5,-359 356.5,-365 356.5,-371 356.5,-371 356.5,-415 356.5,-415 356.5,-421 350.5,-427 344.5,-427"/>
<text text-anchor="middle" x="245.5" y="-414.2" font-family="Arial" font-size="11.00">给定足端位置 p = [x, y, z]ᵀ</text>
<text text-anchor="middle" x="245.5" y="-402.2" font-family="Arial" font-size="11.00">求解关节角度 q = [s, θ_haa, θ_hfe, θ_kfe]ᵀ</text>
<text text-anchor="middle" x="245.5" y="-390.2" font-family="Arial" font-size="11.00">━━━━━━━━━━━━━━━━━━━━━━━━━━</text>
<text text-anchor="middle" x="245.5" y="-378.2" font-family="Arial" font-size="11.00">冗余度 r = 1 → 解空间是 1 维流形</text>
<text text-anchor="middle" x="245.5" y="-366.2" font-family="Arial" font-size="11.00">存在无穷多组解满足约束条件</text>
</g>
<!-- title&#45;&gt;problem -->
<!-- challenge -->
<g id="node3" class="node">
<title>challenge</title>
<path fill="#ef9a9a" stroke="black" d="M298.5,-322C298.5,-322 192.5,-322 192.5,-322 186.5,-322 180.5,-316 180.5,-310 180.5,-310 180.5,-278 180.5,-278 180.5,-272 186.5,-266 192.5,-266 192.5,-266 298.5,-266 298.5,-266 304.5,-266 310.5,-272 310.5,-278 310.5,-278 310.5,-310 310.5,-310 310.5,-316 304.5,-322 298.5,-322"/>
<text text-anchor="middle" x="245.5" y="-309.2" font-family="Arial" font-size="11.00">挑战:</text>
<text text-anchor="middle" x="245.5" y="-297.2" font-family="Arial" font-size="11.00">1. 如何选择最优解？</text>
<text text-anchor="middle" x="245.5" y="-285.2" font-family="Arial" font-size="11.00">2. 如何保证实时性？</text>
<text text-anchor="middle" x="245.5" y="-273.2" font-family="Arial" font-size="11.00">3. 如何避免奇异位形？</text>
</g>
<!-- problem&#45;&gt;challenge -->
<g id="edge1" class="edge">
<title>problem&#45;&gt;challenge</title>
<path fill="none" stroke="black" d="M245.5,-358.89C245.5,-350.29 245.5,-340.97 245.5,-332.18"/>
<polygon fill="black" stroke="black" points="249,-332.17 245.5,-322.17 242,-332.17 249,-332.17"/>
</g>
<!-- sol1 -->
<g id="node4" class="node">
<title>sol1</title>
<path fill="#a5d6a7" stroke="black" stroke-width="2" d="M143.5,-219C143.5,-219 33.5,-219 33.5,-219 27.5,-219 21.5,-213 21.5,-207 21.5,-207 21.5,-115 21.5,-115 21.5,-109 27.5,-103 33.5,-103 33.5,-103 143.5,-103 143.5,-103 149.5,-103 155.5,-109 155.5,-115 155.5,-115 155.5,-207 155.5,-207 155.5,-213 149.5,-219 143.5,-219"/>
<text text-anchor="middle" x="88.5" y="-206.2" font-family="Arial" font-size="11.00">方案 1: 导轨锁定</text>
<text text-anchor="middle" x="88.5" y="-194.2" font-family="Arial" font-size="11.00">━━━━━━━━━━━━━━━━</text>
<text text-anchor="middle" x="88.5" y="-182.2" font-family="Arial" font-size="11.00">固定 s = 0.0m</text>
<text text-anchor="middle" x="88.5" y="-170.2" font-family="Arial" font-size="11.00">降维为 3&#45;DOF 标准问题</text>
<text text-anchor="middle" x="88.5" y="-158.2" font-family="Arial" font-size="11.00">━━━━━━━━━━━━━━━━</text>
<text text-anchor="middle" x="88.5" y="-146.2" font-family="Arial" font-size="11.00">✓ 解析解</text>
<text text-anchor="middle" x="88.5" y="-134.2" font-family="Arial" font-size="11.00">✓ 实时性好 (0.05ms)</text>
<text text-anchor="middle" x="88.5" y="-122.2" font-family="Arial" font-size="11.00">✓ 鲁棒性高</text>
<text text-anchor="middle" x="88.5" y="-110.2" font-family="Arial" font-size="11.00">✗ 未充分利用导轨</text>
</g>
<!-- challenge&#45;&gt;sol1 -->
<g id="edge5" class="edge">
<title>challenge&#45;&gt;sol1</title>
<path fill="none" stroke="green" stroke-width="2" d="M212.97,-265.86C198.56,-253.83 180.96,-239.15 163.58,-224.65"/>
<polygon fill="green" stroke="green" stroke-width="2" points="165.55,-221.73 155.63,-218.01 161.06,-227.11 165.55,-221.73"/>
<text text-anchor="middle" x="200.5" y="-240" font-family="Arial" font-size="10.00">降维</text>
</g>
<!-- sol2 -->
<g id="node5" class="node">
<title>sol2</title>
<path fill="#81c784" stroke="black" stroke-width="2" d="M296,-219C296,-219 195,-219 195,-219 189,-219 183,-213 183,-207 183,-207 183,-115 183,-115 183,-109 189,-103 195,-103 195,-103 296,-103 296,-103 302,-103 308,-109 308,-115 308,-115 308,-207 308,-207 308,-213 302,-219 296,-219"/>
<text text-anchor="middle" x="245.5" y="-206.2" font-family="Arial" font-size="11.00">方案 2: 零空间优化</text>
<text text-anchor="middle" x="245.5" y="-194.2" font-family="Arial" font-size="11.00">━━━━━━━━━━━━━━━━</text>
<text text-anchor="middle" x="245.5" y="-182.2" font-family="Arial" font-size="11.00">q̇ = J†ẋ + Nq̇_s</text>
<text text-anchor="middle" x="245.5" y="-170.2" font-family="Arial" font-size="11.00">主任务 + 次级任务</text>
<text text-anchor="middle" x="245.5" y="-158.2" font-family="Arial" font-size="11.00">━━━━━━━━━━━━━━━━</text>
<text text-anchor="middle" x="245.5" y="-146.2" font-family="Arial" font-size="11.00">✓ 充分利用冗余度</text>
<text text-anchor="middle" x="245.5" y="-134.2" font-family="Arial" font-size="11.00">✓ 优化次级目标</text>
<text text-anchor="middle" x="245.5" y="-122.2" font-family="Arial" font-size="11.00">△ 计算量较大 (1.8ms)</text>
<text text-anchor="middle" x="245.5" y="-110.2" font-family="Arial" font-size="11.00">△ 依赖初值</text>
</g>
<!-- challenge&#45;&gt;sol2 -->
<g id="edge6" class="edge">
<title>challenge&#45;&gt;sol2</title>
<path fill="none" stroke="blue" stroke-width="2" d="M245.5,-265.86C245.5,-255.15 245.5,-242.34 245.5,-229.43"/>
<polygon fill="blue" stroke="blue" stroke-width="2" points="249,-229.09 245.5,-219.09 242,-229.09 249,-229.09"/>
<text text-anchor="middle" x="255.5" y="-240" font-family="Arial" font-size="10.00">优化</text>
</g>
<!-- sol3 -->
<g id="node6" class="node">
<title>sol3</title>
<path fill="#66bb6a" stroke="black" stroke-width="2" d="M459,-219C459,-219 358,-219 358,-219 352,-219 346,-213 346,-207 346,-207 346,-115 346,-115 346,-109 352,-103 358,-103 358,-103 459,-103 459,-103 465,-103 471,-109 471,-115 471,-115 471,-207 471,-207 471,-213 465,-219 459,-219"/>
<text text-anchor="middle" x="408.5" y="-206.2" font-family="Arial" font-size="11.00">方案 3: 任务优先级</text>
<text text-anchor="middle" x="408.5" y="-194.2" font-family="Arial" font-size="11.00">━━━━━━━━━━━━━━━━</text>
<text text-anchor="middle" x="408.5" y="-182.2" font-family="Arial" font-size="11.00">分层求解多个任务</text>
<text text-anchor="middle" x="408.5" y="-170.2" font-family="Arial" font-size="11.00">严格的优先级保证</text>
<text text-anchor="middle" x="408.5" y="-158.2" font-family="Arial" font-size="11.00">━━━━━━━━━━━━━━━━</text>
<text text-anchor="middle" x="408.5" y="-146.2" font-family="Arial" font-size="11.00">✓ 处理复杂场景</text>
<text text-anchor="middle" x="408.5" y="-134.2" font-family="Arial" font-size="11.00">✓ 灵活性高</text>
<text text-anchor="middle" x="408.5" y="-122.2" font-family="Arial" font-size="11.00">✗ 实现复杂</text>
<text text-anchor="middle" x="408.5" y="-110.2" font-family="Arial" font-size="11.00">✗ 计算量大</text>
</g>
<!-- challenge&#45;&gt;sol3 -->
<g id="edge7" class="edge">
<title>challenge&#45;&gt;sol3</title>
<path fill="none" stroke="purple" stroke-width="2" d="M279.27,-265.86C296.23,-252.23 317.45,-235.18 337.75,-218.86"/>
<polygon fill="purple" stroke="purple" stroke-width="2" points="340.18,-221.4 345.78,-212.41 335.8,-215.94 340.18,-221.4"/>
<text text-anchor="middle" x="321.5" y="-240" font-family="Arial" font-size="10.00">分层</text>
</g>
<!-- phase1 -->
<g id="node7" class="node">
<title>phase1</title>
<path fill="#90caf9" stroke="black" stroke-width="3" d="M113,-56C113,-56 12,-56 12,-56 6,-56 0,-50 0,-44 0,-44 0,-12 0,-12 0,-6 6,0 12,0 12,0 113,0 113,0 119,0 125,-6 125,-12 125,-12 125,-44 125,-44 125,-50 119,-56 113,-56"/>
<text text-anchor="middle" x="62.5" y="-43.2" font-family="Arial" font-size="11.00">第 1 阶段 (已完成)</text>
<text text-anchor="middle" x="62.5" y="-31.2" font-family="Arial" font-size="11.00">━━━━━━━━━━━━━━━━</text>
<text text-anchor="middle" x="62.5" y="-19.2" font-family="Arial" font-size="11.00">导轨锁定</text>
<text text-anchor="middle" x="62.5" y="-7.2" font-family="Arial" font-size="11.00">验证系统稳定性</text>
</g>
<!-- sol1&#45;&gt;phase1 -->
<g id="edge8" class="edge">
<title>sol1&#45;&gt;phase1</title>
<path fill="none" stroke="green" stroke-width="3" d="M77.17,-102.92C74.7,-90.46 72.14,-77.59 69.87,-66.15"/>
<polygon fill="green" stroke="green" stroke-width="3" points="73.26,-65.23 67.88,-56.1 66.39,-66.59 73.26,-65.23"/>
<text text-anchor="middle" x="93.5" y="-77" font-family="Arial" font-size="10.00">当前实现</text>
</g>
<!-- phase2 -->
<g id="node8" class="node">
<title>phase2</title>
<path fill="#64b5f6" stroke="black" d="M296,-56C296,-56 195,-56 195,-56 189,-56 183,-50 183,-44 183,-44 183,-12 183,-12 183,-6 189,0 195,0 195,0 296,0 296,0 302,0 308,-6 308,-12 308,-12 308,-44 308,-44 308,-50 302,-56 296,-56"/>
<text text-anchor="middle" x="245.5" y="-43.2" font-family="Arial" font-size="11.00">第 2 阶段 (规划中)</text>
<text text-anchor="middle" x="245.5" y="-31.2" font-family="Arial" font-size="11.00">━━━━━━━━━━━━━━━━</text>
<text text-anchor="middle" x="245.5" y="-19.2" font-family="Arial" font-size="11.00">零空间优化</text>
<text text-anchor="middle" x="245.5" y="-7.2" font-family="Arial" font-size="11.00">提升性能</text>
</g>
<!-- sol2&#45;&gt;phase2 -->
<g id="edge9" class="edge">
<title>sol2&#45;&gt;phase2</title>
<path fill="none" stroke="blue" stroke-width="2" stroke-dasharray="5,2" d="M245.5,-102.92C245.5,-90.46 245.5,-77.59 245.5,-66.15"/>
<polygon fill="blue" stroke="blue" stroke-width="2" points="249,-66.1 245.5,-56.1 242,-66.1 249,-66.1"/>
<text text-anchor="middle" x="265.5" y="-77" font-family="Arial" font-size="10.00">未来扩展</text>
</g>
<!-- phase3 -->
<g id="node9" class="node">
<title>phase3</title>
<path fill="#42a5f5" stroke="black" d="M479,-56C479,-56 378,-56 378,-56 372,-56 366,-50 366,-44 366,-44 366,-12 366,-12 366,-6 372,0 378,0 378,0 479,0 479,0 485,0 491,-6 491,-12 491,-12 491,-44 491,-44 491,-50 485,-56 479,-56"/>
<text text-anchor="middle" x="428.5" y="-43.2" font-family="Arial" font-size="11.00">第 3 阶段 (未来)</text>
<text text-anchor="middle" x="428.5" y="-31.2" font-family="Arial" font-size="11.00">━━━━━━━━━━━━━━━━</text>
<text text-anchor="middle" x="428.5" y="-19.2" font-family="Arial" font-size="11.00">任务优先级</text>
<text text-anchor="middle" x="428.5" y="-7.2" font-family="Arial" font-size="11.00">处理复杂场景</text>
</g>
<!-- sol3&#45;&gt;phase3 -->
<g id="edge10" class="edge">
<title>sol3&#45;&gt;phase3</title>
<path fill="none" stroke="purple" stroke-width="2" stroke-dasharray="5,2" d="M417.21,-102.92C419.12,-90.46 421.08,-77.59 422.83,-66.15"/>
<polygon fill="purple" stroke="purple" stroke-width="2" points="426.31,-66.51 424.36,-56.1 419.39,-65.46 426.31,-66.51"/>
<text text-anchor="middle" x="440.5" y="-77" font-family="Arial" font-size="10.00">长期目标</text>
</g>
<!-- phase1&#45;&gt;phase2 -->
<g id="edge2" class="edge">
<title>phase1&#45;&gt;phase2</title>
<path fill="none" stroke="black" stroke-width="2" d="M125.22,-28C140.5,-28 156.97,-28 172.67,-28"/>
<polygon fill="black" stroke="black" stroke-width="2" points="172.86,-31.5 182.86,-28 172.86,-24.5 172.86,-31.5"/>
<text text-anchor="middle" x="154" y="-34" font-family="Arial" font-size="10.00">平滑过渡</text>
</g>
<!-- phase2&#45;&gt;phase3 -->
<g id="edge3" class="edge">
<title>phase2&#45;&gt;phase3</title>
<path fill="none" stroke="black" stroke-width="2" d="M308.22,-28C323.5,-28 339.97,-28 355.67,-28"/>
<polygon fill="black" stroke="black" stroke-width="2" points="355.86,-31.5 365.86,-28 355.86,-24.5 355.86,-31.5"/>
<text text-anchor="middle" x="337" y="-34" font-family="Arial" font-size="10.00">逐步扩展</text>
</g>
<!-- performance -->
<g id="node10" class="node">
<title>performance</title>
<polygon fill="#fff9c4" stroke="black" points="676.5,-569 374.5,-569 374.5,-484 682.5,-484 682.5,-563 676.5,-569"/>
<polyline fill="none" stroke="black" points="676.5,-569 676.5,-563 "/>
<polyline fill="none" stroke="black" points="682.5,-563 676.5,-563 "/>
<text text-anchor="middle" x="528.5" y="-557" font-family="Courier,monospace" font-size="10.00">性能对比</text>
<text text-anchor="middle" x="528.5" y="-546" font-family="Courier,monospace" font-size="10.00">━━━━━━━━━━━━━━━━━━━━━━━━━━━━━━━━━━━━━━</text>
<text text-anchor="middle" x="528.5" y="-535" font-family="Courier,monospace" font-size="10.00">方法 &#160;&#160;&#160;&#160;&#160;&#160;&#160;&#160;&#160;| 计算时间 | 实时性 | 解唯一性 | 工作空间</text>
<text text-anchor="middle" x="528.5" y="-524" font-family="Courier,monospace" font-size="10.00">━━━━━━━━━━━━━━━━━━━━━━━━━━━━━━━━━━━━━━</text>
<text text-anchor="middle" x="528.5" y="-513" font-family="Courier,monospace" font-size="10.00">导轨锁定 &#160;&#160;&#160;&#160;&#160;| 0.05ms &#160;&#160;| ✓✓✓ &#160;&#160;| ✓✓✓ &#160;&#160;&#160;&#160;| ✓✓</text>
<text text-anchor="middle" x="528.5" y="-502" font-family="Courier,monospace" font-size="10.00">零空间优化 &#160;&#160;&#160;| 1.8ms &#160;&#160;&#160;| ✓✓ &#160;&#160;&#160;| ✓✓ &#160;&#160;&#160;&#160;&#160;| ✓✓✓</text>
<text text-anchor="middle" x="528.5" y="-491" font-family="Courier,monospace" font-size="10.00">任务优先级 &#160;&#160;&#160;| 3.2ms &#160;&#160;&#160;| ✓ &#160;&#160;&#160;&#160;| ✓ &#160;&#160;&#160;&#160;&#160;&#160;| ✓✓✓</text>
</g>
</g>
</svg>
