<?xml version="1.0" encoding="UTF-8" standalone="no"?>
<!DOCTYPE svg PUBLIC "-//W3C//DTD SVG 1.1//EN"
 "http://www.w3.org/Graphics/SVG/1.1/DTD/svg11.dtd">
<!-- Generated by graphviz version 2.43.0 (0)
 -->
<!-- Title: ROS2_Control_Architecture Pages: 1 -->
<svg width="2690pt" height="621pt"
 viewBox="0.00 0.00 2690.00 621.00" xmlns="http://www.w3.org/2000/svg" xmlns:xlink="http://www.w3.org/1999/xlink">
<g id="graph0" class="graph" transform="scale(1 1) rotate(0) translate(4 617)">
<title>ROS2_Control_Architecture</title>
<polygon fill="white" stroke="transparent" points="-4,4 -4,-617 2686,-617 2686,4 -4,4"/>
<g id="clust1" class="cluster">
<title>cluster_user</title>
<polygon fill="lightblue" stroke="lightblue" points="2296,-303 2296,-395 2439,-395 2439,-303 2296,-303"/>
<text text-anchor="middle" x="2367.5" y="-379.8" font-family="Times,serif" font-size="14.00">用户层 User Layer</text>
</g>
<g id="clust2" class="cluster">
<title>cluster_control</title>
<polygon fill="lightyellow" stroke="lightyellow" points="1668,-8 1668,-270 1834,-270 1834,-8 1668,-8"/>
<text text-anchor="middle" x="1751" y="-254.8" font-family="Times,serif" font-size="14.00">控制层 Control Layer</text>
</g>
<g id="clust3" class="cluster">
<title>cluster_dual_channel</title>
<polygon fill="#fff9c4" stroke="#fff9c4" points="8,-426 8,-605 1415,-605 1415,-426 8,-426"/>
<text text-anchor="middle" x="711.5" y="-589.8" font-family="Times,serif" font-size="14.00">双通道指令生成 Dual&#45;Channel Command Generation</text>
</g>
<g id="clust4" class="cluster">
<title>cluster_channel_a</title>
<polygon fill="#ffebee" stroke="#ffebee" points="16,-434 16,-511 662,-511 662,-434 16,-434"/>
<text text-anchor="middle" x="339" y="-495.8" font-family="Times,serif" font-size="14.00">通道 A &#45; 静态锁定</text>
</g>
<g id="clust5" class="cluster">
<title>cluster_channel_b</title>
<polygon fill="#e8f5e9" stroke="#e8f5e9" points="670,-434 670,-511 1407,-511 1407,-434 670,-434"/>
<text text-anchor="middle" x="1038.5" y="-495.8" font-family="Times,serif" font-size="14.00">通道 B &#45; 动态执行</text>
</g>
<g id="clust6" class="cluster">
<title>cluster_framework</title>
<polygon fill="#e1bee7" stroke="#e1bee7" points="882,-193 882,-387.5 1062,-387.5 1062,-193 882,-193"/>
<text text-anchor="middle" x="972" y="-372.3" font-family="Times,serif" font-size="14.00">ROS 2 Control 框架层</text>
</g>
<g id="clust7" class="cluster">
<title>cluster_hardware</title>
<polygon fill="#b2dfdb" stroke="#b2dfdb" points="1446,-310.5 1446,-511 2288,-511 2288,-310.5 1446,-310.5"/>
<text text-anchor="middle" x="1867" y="-495.8" font-family="Times,serif" font-size="14.00">硬件抽象层 Hardware Interface</text>
</g>
<g id="clust8" class="cluster">
<title>cluster_simulation</title>
<polygon fill="#bbdefb" stroke="#bbdefb" points="2447,-310.5 2447,-511 2674,-511 2674,-310.5 2447,-310.5"/>
<text text-anchor="middle" x="2560.5" y="-495.8" font-family="Times,serif" font-size="14.00">物理仿真层 Physics Simulation</text>
</g>
<g id="clust9" class="cluster">
<title>cluster_viz</title>
<polygon fill="#f8bbd0" stroke="#f8bbd0" points="905,-8 905,-160 1074,-160 1074,-8 905,-8"/>
<text text-anchor="middle" x="989.5" y="-144.8" font-family="Times,serif" font-size="14.00">可视化层 Visualization</text>
</g>
<!-- cmd_vel -->
<g id="node1" class="node">
<title>cmd_vel</title>
<polygon fill="#e1f5ff" stroke="black" points="2404.5,-364 2303.5,-364 2303.5,-311 2410.5,-311 2410.5,-358 2404.5,-364"/>
<polyline fill="none" stroke="black" points="2404.5,-364 2404.5,-358 "/>
<polyline fill="none" stroke="black" points="2410.5,-358 2404.5,-358 "/>
<text text-anchor="middle" x="2357" y="-348.8" font-family="Arial" font-size="14.00">cmd_vel</text>
<text text-anchor="middle" x="2357" y="-333.8" font-family="Arial" font-size="14.00">速度指令</text>
<text text-anchor="middle" x="2357" y="-318.8" font-family="Arial" font-size="14.00">Twist Message</text>
</g>
<!-- controller -->
<g id="node2" class="node">
<title>controller</title>
<path fill="#fff3e0" stroke="black" d="M1814,-239C1814,-239 1688,-239 1688,-239 1682,-239 1676,-233 1676,-227 1676,-227 1676,-213 1676,-213 1676,-207 1682,-201 1688,-201 1688,-201 1814,-201 1814,-201 1820,-201 1826,-207 1826,-213 1826,-213 1826,-227 1826,-227 1826,-233 1820,-239 1814,-239"/>
<text text-anchor="middle" x="1751" y="-223.8" font-family="Arial" font-size="14.00">SpiderRobotController</text>
<text text-anchor="middle" x="1751" y="-208.8" font-family="Arial" font-size="14.00">主控制节点</text>
</g>
<!-- cmd_vel&#45;&gt;controller -->
<g id="edge19" class="edge">
<title>cmd_vel&#45;&gt;controller</title>
<path fill="none" stroke="blue" stroke-width="2" d="M2312,-310.95C2305.43,-307.92 2298.64,-305.15 2292,-303 2136.16,-252.54 1944.8,-232.85 1836.48,-225.38"/>
<polygon fill="blue" stroke="blue" stroke-width="2" points="1836.47,-221.87 1826.26,-224.69 1836.01,-228.85 1836.47,-221.87"/>
<text text-anchor="middle" x="2281" y="-281.8" font-family="Arial" font-size="14.00">Twist 消息</text>
</g>
<!-- gait -->
<g id="node3" class="node">
<title>gait</title>
<path fill="#f3e5f5" stroke="black" d="M1789,-129C1789,-129 1709,-129 1709,-129 1703,-129 1697,-123 1697,-117 1697,-117 1697,-103 1697,-103 1697,-97 1703,-91 1709,-91 1709,-91 1789,-91 1789,-91 1795,-91 1801,-97 1801,-103 1801,-103 1801,-117 1801,-117 1801,-123 1795,-129 1789,-129"/>
<text text-anchor="middle" x="1749" y="-113.8" font-family="Arial" font-size="14.00">GaitGenerator</text>
<text text-anchor="middle" x="1749" y="-98.8" font-family="Arial" font-size="14.00">步态生成器</text>
</g>
<!-- controller&#45;&gt;gait -->
<g id="edge1" class="edge">
<title>controller&#45;&gt;gait</title>
<path fill="none" stroke="black" d="M1750.66,-200.68C1750.35,-183.82 1749.88,-158.57 1749.52,-139.15"/>
<polygon fill="black" stroke="black" points="1753.02,-138.98 1749.33,-129.05 1746.02,-139.11 1753.02,-138.98"/>
</g>
<!-- kinematics -->
<g id="node4" class="node">
<title>kinematics</title>
<path fill="#e8f5e9" stroke="black" d="M1789,-54C1789,-54 1691,-54 1691,-54 1685,-54 1679,-48 1679,-42 1679,-42 1679,-28 1679,-28 1679,-22 1685,-16 1691,-16 1691,-16 1789,-16 1789,-16 1795,-16 1801,-22 1801,-28 1801,-28 1801,-42 1801,-42 1801,-48 1795,-54 1789,-54"/>
<text text-anchor="middle" x="1740" y="-38.8" font-family="Arial" font-size="14.00">KinematicsSolver</text>
<text text-anchor="middle" x="1740" y="-23.8" font-family="Arial" font-size="14.00">运动学求解器</text>
</g>
<!-- gait&#45;&gt;kinematics -->
<g id="edge2" class="edge">
<title>gait&#45;&gt;kinematics</title>
<path fill="none" stroke="black" d="M1746.78,-90.96C1745.78,-82.88 1744.58,-73.18 1743.47,-64.18"/>
<polygon fill="black" stroke="black" points="1746.93,-63.59 1742.23,-54.09 1739.98,-64.44 1746.93,-63.59"/>
</g>
<!-- cmd_gen -->
<g id="node5" class="node">
<title>cmd_gen</title>
<path fill="#fff9c4" stroke="black" d="M823.5,-574C823.5,-574 698.5,-574 698.5,-574 692.5,-574 686.5,-568 686.5,-562 686.5,-562 686.5,-550 686.5,-550 686.5,-544 692.5,-538 698.5,-538 698.5,-538 823.5,-538 823.5,-538 829.5,-538 835.5,-544 835.5,-550 835.5,-550 835.5,-562 835.5,-562 835.5,-568 829.5,-574 823.5,-574"/>
<text text-anchor="middle" x="761" y="-552.3" font-family="Arial" font-size="14.00">16 通道关节指令生成</text>
</g>
<!-- kinematics&#45;&gt;cmd_gen -->
<g id="edge20" class="edge">
<title>kinematics&#45;&gt;cmd_gen</title>
<path fill="none" stroke="blue" stroke-width="2" d="M1678.71,-37.89C1587.33,-42.41 1426,-57.65 1426,-109 1426,-338.5 1426,-338.5 1426,-338.5 1426,-415.46 1465.93,-457.11 1411,-511 1371.51,-549.74 1012.71,-554.97 845.75,-555.28"/>
<polygon fill="blue" stroke="blue" stroke-width="2" points="845.51,-551.78 835.51,-555.29 845.52,-558.78 845.51,-551.78"/>
<text text-anchor="middle" x="1455" y="-281.8" font-family="Arial" font-size="14.00">足端轨迹</text>
</g>
<!-- rail1 -->
<g id="node6" class="node">
<title>rail1</title>
<path fill="#ffcdd2" stroke="black" d="M317.5,-480C317.5,-480 198.5,-480 198.5,-480 192.5,-480 186.5,-474 186.5,-468 186.5,-468 186.5,-454 186.5,-454 186.5,-448 192.5,-442 198.5,-442 198.5,-442 317.5,-442 317.5,-442 323.5,-442 329.5,-448 329.5,-454 329.5,-454 329.5,-468 329.5,-468 329.5,-474 323.5,-480 317.5,-480"/>
<text text-anchor="middle" x="258" y="-464.8" font-family="Arial" font-size="14.00">导轨 1: j11_prismatic</text>
<text text-anchor="middle" x="258" y="-449.8" font-family="Arial" font-size="14.00">位置: 0.0m 锁定</text>
</g>
<!-- cmd_gen&#45;&gt;rail1 -->
<g id="edge3" class="edge">
<title>cmd_gen&#45;&gt;rail1</title>
<path fill="none" stroke="black" d="M686.39,-551.15C582.91,-545.14 401.5,-531.99 339,-511 321.71,-505.19 304.19,-495.21 289.89,-485.77"/>
<polygon fill="black" stroke="black" points="291.66,-482.75 281.43,-480 287.72,-488.53 291.66,-482.75"/>
</g>
<!-- rail2 -->
<g id="node7" class="node">
<title>rail2</title>
<path fill="#ffcdd2" stroke="black" d="M480,-480C480,-480 360,-480 360,-480 354,-480 348,-474 348,-468 348,-468 348,-454 348,-454 348,-448 354,-442 360,-442 360,-442 480,-442 480,-442 486,-442 492,-448 492,-454 492,-454 492,-468 492,-468 492,-474 486,-480 480,-480"/>
<text text-anchor="middle" x="420" y="-464.8" font-family="Arial" font-size="14.00">导轨 2: j21_prismatic</text>
<text text-anchor="middle" x="420" y="-449.8" font-family="Arial" font-size="14.00">位置: 0.0m 锁定</text>
</g>
<!-- cmd_gen&#45;&gt;rail2 -->
<g id="edge4" class="edge">
<title>cmd_gen&#45;&gt;rail2</title>
<path fill="none" stroke="black" d="M686.23,-549.84C633.2,-544.39 561.08,-533.33 501,-511 484.16,-504.74 466.93,-494.89 452.72,-485.66"/>
<polygon fill="black" stroke="black" points="454.55,-482.68 444.29,-480.03 450.66,-488.5 454.55,-482.68"/>
</g>
<!-- rail3 -->
<g id="node8" class="node">
<title>rail3</title>
<path fill="#ffcdd2" stroke="black" d="M642,-480C642,-480 522,-480 522,-480 516,-480 510,-474 510,-468 510,-468 510,-454 510,-454 510,-448 516,-442 522,-442 522,-442 642,-442 642,-442 648,-442 654,-448 654,-454 654,-454 654,-468 654,-468 654,-474 648,-480 642,-480"/>
<text text-anchor="middle" x="582" y="-464.8" font-family="Arial" font-size="14.00">导轨 3: j31_prismatic</text>
<text text-anchor="middle" x="582" y="-449.8" font-family="Arial" font-size="14.00">位置: 0.0m 锁定</text>
</g>
<!-- cmd_gen&#45;&gt;rail3 -->
<g id="edge5" class="edge">
<title>cmd_gen&#45;&gt;rail3</title>
<path fill="none" stroke="black" d="M721.77,-537.84C704.49,-530.02 684.05,-520.42 666,-511 650.9,-503.12 634.65,-493.84 620.51,-485.49"/>
<polygon fill="black" stroke="black" points="621.93,-482.26 611.55,-480.16 618.35,-488.28 621.93,-482.26"/>
</g>
<!-- rail4 -->
<g id="node9" class="node">
<title>rail4</title>
<path fill="#ffcdd2" stroke="black" d="M156,-480C156,-480 36,-480 36,-480 30,-480 24,-474 24,-468 24,-468 24,-454 24,-454 24,-448 30,-442 36,-442 36,-442 156,-442 156,-442 162,-442 168,-448 168,-454 168,-454 168,-468 168,-468 168,-474 162,-480 156,-480"/>
<text text-anchor="middle" x="96" y="-464.8" font-family="Arial" font-size="14.00">导轨 4: j41_prismatic</text>
<text text-anchor="middle" x="96" y="-449.8" font-family="Arial" font-size="14.00">位置: 0.0m 锁定</text>
</g>
<!-- cmd_gen&#45;&gt;rail4 -->
<g id="edge6" class="edge">
<title>cmd_gen&#45;&gt;rail4</title>
<path fill="none" stroke="black" d="M686.27,-553.62C550.92,-550.42 270.65,-540.37 178,-511 160.46,-505.44 142.72,-495.49 128.24,-486.01"/>
<polygon fill="black" stroke="black" points="129.93,-482.92 119.69,-480.2 126,-488.71 129.93,-482.92"/>
</g>
<!-- leg1 -->
<g id="node10" class="node">
<title>leg1</title>
<path fill="#c8e6c9" stroke="black" d="M1017.5,-480C1017.5,-480 874.5,-480 874.5,-480 868.5,-480 862.5,-474 862.5,-468 862.5,-468 862.5,-454 862.5,-454 862.5,-448 868.5,-442 874.5,-442 874.5,-442 1017.5,-442 1017.5,-442 1023.5,-442 1029.5,-448 1029.5,-454 1029.5,-454 1029.5,-468 1029.5,-468 1029.5,-474 1023.5,-480 1017.5,-480"/>
<text text-anchor="middle" x="946" y="-464.8" font-family="Arial" font-size="14.00">腿 1 旋转关节</text>
<text text-anchor="middle" x="946" y="-449.8" font-family="Arial" font-size="14.00">j12_haa, j13_hfe, j14_kfe</text>
</g>
<!-- cmd_gen&#45;&gt;leg1 -->
<g id="edge7" class="edge">
<title>cmd_gen&#45;&gt;leg1</title>
<path fill="none" stroke="black" d="M798.3,-537.84C815.37,-529.87 835.81,-520.14 854,-511 870.49,-502.71 888.44,-493.25 904.08,-484.87"/>
<polygon fill="black" stroke="black" points="905.84,-487.9 912.98,-480.07 902.52,-481.73 905.84,-487.9"/>
</g>
<!-- leg2 -->
<g id="node11" class="node">
<title>leg2</title>
<path fill="#c8e6c9" stroke="black" d="M1202.5,-480C1202.5,-480 1059.5,-480 1059.5,-480 1053.5,-480 1047.5,-474 1047.5,-468 1047.5,-468 1047.5,-454 1047.5,-454 1047.5,-448 1053.5,-442 1059.5,-442 1059.5,-442 1202.5,-442 1202.5,-442 1208.5,-442 1214.5,-448 1214.5,-454 1214.5,-454 1214.5,-468 1214.5,-468 1214.5,-474 1208.5,-480 1202.5,-480"/>
<text text-anchor="middle" x="1131" y="-464.8" font-family="Arial" font-size="14.00">腿 2 旋转关节</text>
<text text-anchor="middle" x="1131" y="-449.8" font-family="Arial" font-size="14.00">j22_haa, j23_hfe, j24_kfe</text>
</g>
<!-- cmd_gen&#45;&gt;leg2 -->
<g id="edge8" class="edge">
<title>cmd_gen&#45;&gt;leg2</title>
<path fill="none" stroke="black" d="M835.76,-549.94C892.66,-544.48 972.28,-533.35 1039,-511 1058.11,-504.6 1078.01,-494.49 1094.39,-485.12"/>
<polygon fill="black" stroke="black" points="1096.24,-488.09 1103.1,-480.01 1092.7,-482.05 1096.24,-488.09"/>
</g>
<!-- leg3 -->
<g id="node12" class="node">
<title>leg3</title>
<path fill="#c8e6c9" stroke="black" d="M1387.5,-480C1387.5,-480 1244.5,-480 1244.5,-480 1238.5,-480 1232.5,-474 1232.5,-468 1232.5,-468 1232.5,-454 1232.5,-454 1232.5,-448 1238.5,-442 1244.5,-442 1244.5,-442 1387.5,-442 1387.5,-442 1393.5,-442 1399.5,-448 1399.5,-454 1399.5,-454 1399.5,-468 1399.5,-468 1399.5,-474 1393.5,-480 1387.5,-480"/>
<text text-anchor="middle" x="1316" y="-464.8" font-family="Arial" font-size="14.00">腿 3 旋转关节</text>
<text text-anchor="middle" x="1316" y="-449.8" font-family="Arial" font-size="14.00">j32_haa, j33_hfe, j34_kfe</text>
</g>
<!-- cmd_gen&#45;&gt;leg3 -->
<g id="edge9" class="edge">
<title>cmd_gen&#45;&gt;leg3</title>
<path fill="none" stroke="black" d="M835.67,-551.47C947.62,-545.58 1153.34,-532.24 1224,-511 1243.59,-505.11 1263.83,-494.86 1280.31,-485.26"/>
<polygon fill="black" stroke="black" points="1282.27,-488.16 1289.05,-480.02 1278.68,-482.16 1282.27,-488.16"/>
</g>
<!-- leg4 -->
<g id="node13" class="node">
<title>leg4</title>
<path fill="#c8e6c9" stroke="black" d="M832.5,-480C832.5,-480 689.5,-480 689.5,-480 683.5,-480 677.5,-474 677.5,-468 677.5,-468 677.5,-454 677.5,-454 677.5,-448 683.5,-442 689.5,-442 689.5,-442 832.5,-442 832.5,-442 838.5,-442 844.5,-448 844.5,-454 844.5,-454 844.5,-468 844.5,-468 844.5,-474 838.5,-480 832.5,-480"/>
<text text-anchor="middle" x="761" y="-464.8" font-family="Arial" font-size="14.00">腿 4 旋转关节</text>
<text text-anchor="middle" x="761" y="-449.8" font-family="Arial" font-size="14.00">j42_haa, j43_hfe, j44_kfe</text>
</g>
<!-- cmd_gen&#45;&gt;leg4 -->
<g id="edge10" class="edge">
<title>cmd_gen&#45;&gt;leg4</title>
<path fill="none" stroke="black" d="M761,-537.94C761,-524.65 761,-505.9 761,-490.36"/>
<polygon fill="black" stroke="black" points="764.5,-490.22 761,-480.22 757.5,-490.22 764.5,-490.22"/>
</g>
<!-- jtc -->
<g id="node14" class="node">
<title>jtc</title>
<path fill="#e1bee7" stroke="black" d="M1042,-356.5C1042,-356.5 902,-356.5 902,-356.5 896,-356.5 890,-350.5 890,-344.5 890,-344.5 890,-330.5 890,-330.5 890,-324.5 896,-318.5 902,-318.5 902,-318.5 1042,-318.5 1042,-318.5 1048,-318.5 1054,-324.5 1054,-330.5 1054,-330.5 1054,-344.5 1054,-344.5 1054,-350.5 1048,-356.5 1042,-356.5"/>
<text text-anchor="middle" x="972" y="-341.3" font-family="Arial" font-size="14.00">JointTrajectoryController</text>
<text text-anchor="middle" x="972" y="-326.3" font-family="Arial" font-size="14.00">关节轨迹控制器</text>
</g>
<!-- rail1&#45;&gt;jtc -->
<g id="edge21" class="edge">
<title>rail1&#45;&gt;jtc</title>
<path fill="none" stroke="red" stroke-width="2" d="M296.56,-441.96C309.8,-436.27 324.86,-430.34 339,-426 388.84,-410.73 402.55,-411.34 454,-403 602.26,-378.98 775.66,-359.03 879.51,-347.94"/>
<polygon fill="red" stroke="red" stroke-width="2" points="880.07,-351.4 889.64,-346.86 879.33,-344.44 880.07,-351.4"/>
<text text-anchor="middle" x="494" y="-406.8" font-family="Arial" font-size="14.00">静态指令 0.0</text>
</g>
<!-- rail2&#45;&gt;jtc -->
<g id="edge22" class="edge">
<title>rail2&#45;&gt;jtc</title>
<path fill="none" stroke="red" stroke-width="2" d="M458.52,-441.85C471.76,-436.15 486.83,-430.24 501,-426 629.91,-387.45 783.98,-362.68 879.94,-349.67"/>
<polygon fill="red" stroke="red" stroke-width="2" points="880.46,-353.13 889.9,-348.33 879.53,-346.19 880.46,-353.13"/>
</g>
<!-- rail3&#45;&gt;jtc -->
<g id="edge23" class="edge">
<title>rail3&#45;&gt;jtc</title>
<path fill="none" stroke="red" stroke-width="2" d="M623.97,-441.99C637.3,-436.55 652.17,-430.76 666,-426 741.38,-400.05 828.99,-375.56 891.1,-359.12"/>
<polygon fill="red" stroke="red" stroke-width="2" points="892.07,-362.49 900.85,-356.55 890.28,-355.72 892.07,-362.49"/>
</g>
<!-- rail4&#45;&gt;jtc -->
<g id="edge24" class="edge">
<title>rail4&#45;&gt;jtc</title>
<path fill="none" stroke="red" stroke-width="2" d="M133.64,-441.9C147.33,-435.99 163.1,-429.94 178,-426 258.1,-404.83 280.69,-412.47 363,-403 545.94,-381.94 760.11,-359.85 879.5,-347.77"/>
<polygon fill="red" stroke="red" stroke-width="2" points="880.1,-351.23 889.7,-346.74 879.4,-344.26 880.1,-351.23"/>
</g>
<!-- leg1&#45;&gt;jtc -->
<g id="edge25" class="edge">
<title>leg1&#45;&gt;jtc</title>
<path fill="none" stroke="green" stroke-width="2" d="M949.89,-441.81C954.14,-421.95 961,-389.88 965.96,-366.74"/>
<polygon fill="green" stroke="green" stroke-width="2" points="969.41,-367.33 968.08,-356.81 962.57,-365.86 969.41,-367.33"/>
<text text-anchor="middle" x="986" y="-406.8" font-family="Arial" font-size="14.00">动态指令</text>
</g>
<!-- leg2&#45;&gt;jtc -->
<g id="edge26" class="edge">
<title>leg2&#45;&gt;jtc</title>
<path fill="none" stroke="green" stroke-width="2" d="M1089.96,-441.88C1076.68,-435.21 1062.23,-427.04 1050,-418 1028.89,-402.39 1008.23,-380.98 993.48,-364.3"/>
<polygon fill="green" stroke="green" stroke-width="2" points="995.94,-361.8 986.74,-356.55 990.66,-366.39 995.94,-361.8"/>
</g>
<!-- leg3&#45;&gt;jtc -->
<g id="edge27" class="edge">
<title>leg3&#45;&gt;jtc</title>
<path fill="none" stroke="green" stroke-width="2" d="M1275.1,-441.9C1259.42,-435.76 1241.17,-429.56 1224,-426 1192.18,-419.41 1108.53,-429.11 1078,-418 1061.32,-411.93 1026.24,-384.29 1001,-363.3"/>
<polygon fill="green" stroke="green" stroke-width="2" points="1003.1,-360.49 993.19,-356.75 998.6,-365.85 1003.1,-360.49"/>
</g>
<!-- leg4&#45;&gt;jtc -->
<g id="edge28" class="edge">
<title>leg4&#45;&gt;jtc</title>
<path fill="none" stroke="green" stroke-width="2" d="M792.59,-441.81C829.68,-420.45 891.25,-385 931.74,-361.68"/>
<polygon fill="green" stroke="green" stroke-width="2" points="933.62,-364.64 940.54,-356.62 930.13,-358.57 933.62,-364.64"/>
</g>
<!-- cm -->
<g id="node15" class="node">
<title>cm</title>
<path fill="#c5cae9" stroke="black" d="M1041.5,-239C1041.5,-239 936.5,-239 936.5,-239 930.5,-239 924.5,-233 924.5,-227 924.5,-227 924.5,-213 924.5,-213 924.5,-207 930.5,-201 936.5,-201 936.5,-201 1041.5,-201 1041.5,-201 1047.5,-201 1053.5,-207 1053.5,-213 1053.5,-213 1053.5,-227 1053.5,-227 1053.5,-233 1047.5,-239 1041.5,-239"/>
<text text-anchor="middle" x="989" y="-223.8" font-family="Arial" font-size="14.00">ControllerManager</text>
<text text-anchor="middle" x="989" y="-208.8" font-family="Arial" font-size="14.00">控制器管理器</text>
</g>
<!-- jtc&#45;&gt;cm -->
<g id="edge11" class="edge">
<title>jtc&#45;&gt;cm</title>
<path fill="none" stroke="black" d="M974.66,-318.45C977.38,-299.91 981.67,-270.8 984.85,-249.21"/>
<polygon fill="black" stroke="black" points="988.31,-249.7 986.31,-239.3 981.39,-248.69 988.31,-249.7"/>
</g>
<!-- gazebo_sys -->
<g id="node16" class="node">
<title>gazebo_sys</title>
<path fill="#b2dfdb" stroke="black" d="M1748,-480C1748,-480 1618,-480 1618,-480 1612,-480 1606,-474 1606,-468 1606,-468 1606,-454 1606,-454 1606,-448 1612,-442 1618,-442 1618,-442 1748,-442 1748,-442 1754,-442 1760,-448 1760,-454 1760,-454 1760,-468 1760,-468 1760,-474 1754,-480 1748,-480"/>
<text text-anchor="middle" x="1683" y="-464.8" font-family="Arial" font-size="14.00">GazeboSystem</text>
<text text-anchor="middle" x="1683" y="-449.8" font-family="Arial" font-size="14.00">Gazebo 硬件接口插件</text>
</g>
<!-- cm&#45;&gt;gazebo_sys -->
<g id="edge29" class="edge">
<title>cm&#45;&gt;gazebo_sys</title>
<path fill="none" stroke="blue" stroke-width="2" d="M1026.19,-239.1C1057.03,-253.96 1102.13,-275.37 1142,-293 1250.24,-340.88 1275.1,-359.46 1388,-395 1456.69,-416.62 1536.56,-433.75 1595.85,-444.98"/>
<polygon fill="blue" stroke="blue" stroke-width="2" points="1595.46,-448.47 1605.93,-446.87 1596.75,-441.59 1595.46,-448.47"/>
<text text-anchor="middle" x="1417" y="-333.8" font-family="Arial" font-size="14.00">命令分发</text>
</g>
<!-- joint_states -->
<g id="node25" class="node">
<title>joint_states</title>
<polygon fill="#dcedc8" stroke="black" points="1025.5,-129 946.5,-129 946.5,-91 1031.5,-91 1031.5,-123 1025.5,-129"/>
<polyline fill="none" stroke="black" points="1025.5,-129 1025.5,-123 "/>
<polyline fill="none" stroke="black" points="1031.5,-123 1025.5,-123 "/>
<text text-anchor="middle" x="989" y="-113.8" font-family="Arial" font-size="14.00">joint_states</text>
<text text-anchor="middle" x="989" y="-98.8" font-family="Arial" font-size="14.00">Topic</text>
</g>
<!-- cm&#45;&gt;joint_states -->
<g id="edge38" class="edge">
<title>cm&#45;&gt;joint_states</title>
<path fill="none" stroke="blue" stroke-width="2" d="M989,-200.68C989,-183.82 989,-158.57 989,-139.15"/>
<polygon fill="blue" stroke="blue" stroke-width="2" points="992.5,-139.05 989,-129.05 985.5,-139.05 992.5,-139.05"/>
<text text-anchor="middle" x="1023.5" y="-171.8" font-family="Arial" font-size="14.00">joint_states</text>
</g>
<!-- cmd_if_static -->
<g id="node17" class="node">
<title>cmd_if_static</title>
<path fill="#ffccbc" stroke="black" d="M2058,-356.5C2058,-356.5 1926,-356.5 1926,-356.5 1920,-356.5 1914,-350.5 1914,-344.5 1914,-344.5 1914,-330.5 1914,-330.5 1914,-324.5 1920,-318.5 1926,-318.5 1926,-318.5 2058,-318.5 2058,-318.5 2064,-318.5 2070,-324.5 2070,-330.5 2070,-330.5 2070,-344.5 2070,-344.5 2070,-350.5 2064,-356.5 2058,-356.5"/>
<text text-anchor="middle" x="1992" y="-341.3" font-family="Arial" font-size="14.00">4 个导轨位置命令接口</text>
<text text-anchor="middle" x="1992" y="-326.3" font-family="Arial" font-size="14.00">position command</text>
</g>
<!-- gazebo_sys&#45;&gt;cmd_if_static -->
<g id="edge12" class="edge">
<title>gazebo_sys&#45;&gt;cmd_if_static</title>
<path fill="none" stroke="black" d="M1710.02,-441.72C1733.64,-425.9 1765.2,-405.22 1772,-403 1828.31,-384.66 1848.75,-413.52 1905,-395 1926.12,-388.05 1947.11,-374.66 1963.18,-362.66"/>
<polygon fill="black" stroke="black" points="1965.32,-365.42 1971.11,-356.55 1961.05,-359.88 1965.32,-365.42"/>
</g>
<!-- cmd_if_dynamic -->
<g id="node18" class="node">
<title>cmd_if_dynamic</title>
<path fill="#c8e6c9" stroke="black" d="M2268,-356.5C2268,-356.5 2100,-356.5 2100,-356.5 2094,-356.5 2088,-350.5 2088,-344.5 2088,-344.5 2088,-330.5 2088,-330.5 2088,-324.5 2094,-318.5 2100,-318.5 2100,-318.5 2268,-318.5 2268,-318.5 2274,-318.5 2280,-324.5 2280,-330.5 2280,-330.5 2280,-344.5 2280,-344.5 2280,-350.5 2274,-356.5 2268,-356.5"/>
<text text-anchor="middle" x="2184" y="-341.3" font-family="Arial" font-size="14.00">12 个旋转关节位置命令接口</text>
<text text-anchor="middle" x="2184" y="-326.3" font-family="Arial" font-size="14.00">position command</text>
</g>
<!-- gazebo_sys&#45;&gt;cmd_if_dynamic -->
<g id="edge13" class="edge">
<title>gazebo_sys&#45;&gt;cmd_if_dynamic</title>
<path fill="none" stroke="black" d="M1717.62,-441.9C1747.16,-426.81 1787.54,-407.15 1805,-403 1864.27,-388.93 2020.15,-410.74 2079,-395 2104.32,-388.23 2130.28,-374.33 2150.05,-362.02"/>
<polygon fill="black" stroke="black" points="2152.13,-364.84 2158.67,-356.5 2148.36,-358.94 2152.13,-364.84"/>
</g>
<!-- state_pos -->
<g id="node19" class="node">
<title>state_pos</title>
<path fill="#d1c4e9" stroke="black" d="M1730.5,-356.5C1730.5,-356.5 1619.5,-356.5 1619.5,-356.5 1613.5,-356.5 1607.5,-350.5 1607.5,-344.5 1607.5,-344.5 1607.5,-330.5 1607.5,-330.5 1607.5,-324.5 1613.5,-318.5 1619.5,-318.5 1619.5,-318.5 1730.5,-318.5 1730.5,-318.5 1736.5,-318.5 1742.5,-324.5 1742.5,-330.5 1742.5,-330.5 1742.5,-344.5 1742.5,-344.5 1742.5,-350.5 1736.5,-356.5 1730.5,-356.5"/>
<text text-anchor="middle" x="1675" y="-341.3" font-family="Arial" font-size="14.00">16 个关节位置状态</text>
<text text-anchor="middle" x="1675" y="-326.3" font-family="Arial" font-size="14.00">position state</text>
</g>
<!-- gazebo_sys&#45;&gt;state_pos -->
<g id="edge14" class="edge">
<title>gazebo_sys&#45;&gt;state_pos</title>
<path fill="none" stroke="black" d="M1681.8,-441.81C1680.5,-422.04 1678.4,-390.17 1676.88,-367.06"/>
<polygon fill="black" stroke="black" points="1680.36,-366.56 1676.21,-356.81 1673.37,-367.02 1680.36,-366.56"/>
</g>
<!-- state_vel -->
<g id="node20" class="node">
<title>state_vel</title>
<path fill="#d1c4e9" stroke="black" d="M1883.5,-356.5C1883.5,-356.5 1772.5,-356.5 1772.5,-356.5 1766.5,-356.5 1760.5,-350.5 1760.5,-344.5 1760.5,-344.5 1760.5,-330.5 1760.5,-330.5 1760.5,-324.5 1766.5,-318.5 1772.5,-318.5 1772.5,-318.5 1883.5,-318.5 1883.5,-318.5 1889.5,-318.5 1895.5,-324.5 1895.5,-330.5 1895.5,-330.5 1895.5,-344.5 1895.5,-344.5 1895.5,-350.5 1889.5,-356.5 1883.5,-356.5"/>
<text text-anchor="middle" x="1828" y="-341.3" font-family="Arial" font-size="14.00">16 个关节速度状态</text>
<text text-anchor="middle" x="1828" y="-326.3" font-family="Arial" font-size="14.00">velocity state</text>
</g>
<!-- gazebo_sys&#45;&gt;state_vel -->
<g id="edge15" class="edge">
<title>gazebo_sys&#45;&gt;state_vel</title>
<path fill="none" stroke="black" d="M1704.71,-441.81C1729.59,-420.96 1770.5,-386.68 1798.32,-363.37"/>
<polygon fill="black" stroke="black" points="1800.73,-365.92 1806.14,-356.81 1796.23,-360.55 1800.73,-365.92"/>
</g>
<!-- state_eff -->
<g id="node21" class="node">
<title>state_eff</title>
<path fill="#d1c4e9" stroke="black" d="M1577.5,-356.5C1577.5,-356.5 1466.5,-356.5 1466.5,-356.5 1460.5,-356.5 1454.5,-350.5 1454.5,-344.5 1454.5,-344.5 1454.5,-330.5 1454.5,-330.5 1454.5,-324.5 1460.5,-318.5 1466.5,-318.5 1466.5,-318.5 1577.5,-318.5 1577.5,-318.5 1583.5,-318.5 1589.5,-324.5 1589.5,-330.5 1589.5,-330.5 1589.5,-344.5 1589.5,-344.5 1589.5,-350.5 1583.5,-356.5 1577.5,-356.5"/>
<text text-anchor="middle" x="1522" y="-341.3" font-family="Arial" font-size="14.00">16 个关节力矩状态</text>
<text text-anchor="middle" x="1522" y="-326.3" font-family="Arial" font-size="14.00">effort state</text>
</g>
<!-- gazebo_sys&#45;&gt;state_eff -->
<g id="edge16" class="edge">
<title>gazebo_sys&#45;&gt;state_eff</title>
<path fill="none" stroke="black" d="M1658.9,-441.81C1631.07,-420.81 1585.19,-386.18 1554.29,-362.87"/>
<polygon fill="black" stroke="black" points="1556.1,-359.85 1546,-356.62 1551.88,-365.43 1556.1,-359.85"/>
</g>
<!-- gazebo -->
<g id="node22" class="node">
<title>gazebo</title>
<path fill="#bbdefb" stroke="black" d="M2561,-480C2561,-480 2467,-480 2467,-480 2461,-480 2455,-474 2455,-468 2455,-468 2455,-454 2455,-454 2455,-448 2461,-442 2467,-442 2467,-442 2561,-442 2561,-442 2567,-442 2573,-448 2573,-454 2573,-454 2573,-468 2573,-468 2573,-474 2567,-480 2561,-480"/>
<text text-anchor="middle" x="2514" y="-464.8" font-family="Arial" font-size="14.00">Gazebo Fortress</text>
<text text-anchor="middle" x="2514" y="-449.8" font-family="Arial" font-size="14.00">物理引擎</text>
</g>
<!-- cmd_if_static&#45;&gt;gazebo -->
<g id="edge30" class="edge">
<title>cmd_if_static&#45;&gt;gazebo</title>
<path fill="none" stroke="red" stroke-width="2" stroke-dasharray="5,2" d="M2013.8,-356.5C2030.58,-369.36 2054.9,-385.92 2079,-395 2168.52,-428.72 2197.39,-411.87 2292,-426 2343.16,-433.64 2400.92,-442.49 2444.69,-449.25"/>
<polygon fill="red" stroke="red" stroke-width="2" points="2444.24,-452.72 2454.66,-450.79 2445.31,-445.8 2444.24,-452.72"/>
<text text-anchor="middle" x="2212" y="-406.8" font-family="Arial" font-size="14.00">导轨锁定</text>
</g>
<!-- cmd_if_dynamic&#45;&gt;gazebo -->
<g id="edge31" class="edge">
<title>cmd_if_dynamic&#45;&gt;gazebo</title>
<path fill="none" stroke="green" stroke-width="2" stroke-dasharray="5,2" d="M2214.89,-356.75C2236.07,-368.74 2265.11,-384.16 2292,-395 2342.03,-415.18 2400.69,-432.08 2445.14,-443.59"/>
<polygon fill="green" stroke="green" stroke-width="2" points="2444.42,-447.01 2454.97,-446.1 2446.15,-440.23 2444.42,-447.01"/>
<text text-anchor="middle" x="2380" y="-406.8" font-family="Arial" font-size="14.00">旋转执行</text>
</g>
<!-- state_pos&#45;&gt;controller -->
<g id="edge39" class="edge">
<title>state_pos&#45;&gt;controller</title>
<path fill="none" stroke="orange" stroke-dasharray="5,2" d="M1686.88,-318.45C1699.35,-299.49 1719.11,-269.47 1733.4,-247.75"/>
<polygon fill="orange" stroke="orange" points="1736.38,-249.58 1738.96,-239.3 1730.54,-245.73 1736.38,-249.58"/>
<text text-anchor="middle" x="1742" y="-281.8" font-family="Arial" font-size="14.00">闭环反馈</text>
</g>
<!-- state_pos&#45;&gt;cm -->
<g id="edge35" class="edge">
<title>state_pos&#45;&gt;cm</title>
<path fill="none" stroke="purple" stroke-width="2" d="M1641.54,-318.39C1628.62,-312.31 1613.49,-306.25 1599,-303 1517.88,-284.78 1306.46,-309.63 1225,-293 1207.21,-289.37 1204.19,-283.85 1187,-278 1146.59,-264.24 1100.83,-250.93 1063.49,-240.63"/>
<polygon fill="purple" stroke="purple" stroke-width="2" points="1064.26,-237.21 1053.69,-237.94 1062.41,-243.96 1064.26,-237.21"/>
<text text-anchor="middle" x="1254" y="-281.8" font-family="Arial" font-size="14.00">状态反馈</text>
</g>
<!-- state_vel&#45;&gt;controller -->
<g id="edge40" class="edge">
<title>state_vel&#45;&gt;controller</title>
<path fill="none" stroke="orange" stroke-dasharray="5,2" d="M1815.97,-318.45C1803.33,-299.49 1783.31,-269.47 1768.84,-247.75"/>
<polygon fill="orange" stroke="orange" points="1771.66,-245.68 1763.2,-239.3 1765.84,-249.56 1771.66,-245.68"/>
</g>
<!-- state_vel&#45;&gt;cm -->
<g id="edge36" class="edge">
<title>state_vel&#45;&gt;cm</title>
<path fill="none" stroke="purple" stroke-width="2" d="M1794.53,-318.41C1781.62,-312.33 1766.49,-306.27 1752,-303 1676.53,-285.97 1480.98,-300.74 1404,-293 1283.92,-280.92 1146.18,-254.49 1063.47,-237.23"/>
<polygon fill="purple" stroke="purple" stroke-width="2" points="1064.16,-233.8 1053.66,-235.18 1062.72,-240.66 1064.16,-233.8"/>
</g>
<!-- state_eff&#45;&gt;cm -->
<g id="edge37" class="edge">
<title>state_eff&#45;&gt;cm</title>
<path fill="none" stroke="purple" stroke-width="2" d="M1454.39,-331.22C1388.75,-325.19 1286.61,-313.42 1200,-293 1145.48,-280.14 1085.17,-258.81 1043.04,-242.7"/>
<polygon fill="purple" stroke="purple" stroke-width="2" points="1044.12,-239.36 1033.53,-239.03 1041.6,-245.9 1044.12,-239.36"/>
</g>
<!-- gazebo&#45;&gt;state_pos -->
<g id="edge32" class="edge">
<title>gazebo&#45;&gt;state_pos</title>
<path fill="none" stroke="purple" stroke-width="2" d="M2454.89,-448.76C2410.31,-440.81 2347.55,-430.76 2292,-426 2198.77,-418.01 1963.89,-429.32 1871,-418 1841.14,-414.36 1834.56,-408.58 1805,-403 1781.59,-398.58 1774.02,-404.09 1752,-395 1733.68,-387.44 1715.68,-374.62 1701.69,-363.1"/>
<polygon fill="purple" stroke="purple" stroke-width="2" points="1703.84,-360.33 1693.95,-356.52 1699.3,-365.66 1703.84,-360.33"/>
<text text-anchor="middle" x="1900" y="-406.8" font-family="Arial" font-size="14.00">物理状态</text>
</g>
<!-- gazebo&#45;&gt;state_vel -->
<g id="edge33" class="edge">
<title>gazebo&#45;&gt;state_vel</title>
<path fill="none" stroke="purple" stroke-width="2" d="M2454.86,-449.12C2410.26,-441.37 2347.5,-431.39 2292,-426 2206.13,-417.66 1985.27,-426.62 1905,-395 1886.56,-387.74 1868.55,-374.94 1854.59,-363.36"/>
<polygon fill="purple" stroke="purple" stroke-width="2" points="1856.74,-360.58 1846.87,-356.73 1852.18,-365.9 1856.74,-360.58"/>
</g>
<!-- gazebo&#45;&gt;state_eff -->
<g id="edge34" class="edge">
<title>gazebo&#45;&gt;state_eff</title>
<path fill="none" stroke="purple" stroke-width="2" d="M2454.9,-448.72C2410.32,-440.75 2347.56,-430.69 2292,-426 2077.18,-407.86 2022.15,-431.64 1807,-418 1760.59,-415.06 1642.33,-411.89 1599,-395 1580.4,-387.75 1562.27,-374.83 1548.28,-363.17"/>
<polygon fill="purple" stroke="purple" stroke-width="2" points="1550.4,-360.38 1540.54,-356.5 1545.83,-365.68 1550.4,-360.38"/>
</g>
<!-- urdf -->
<g id="node23" class="node">
<title>urdf</title>
<path fill="#c5e1a5" stroke="black" d="M2572.5,-356.5C2572.5,-356.5 2467.5,-356.5 2467.5,-356.5 2461.5,-356.5 2455.5,-350.5 2455.5,-344.5 2455.5,-344.5 2455.5,-330.5 2455.5,-330.5 2455.5,-324.5 2461.5,-318.5 2467.5,-318.5 2467.5,-318.5 2572.5,-318.5 2572.5,-318.5 2578.5,-318.5 2584.5,-324.5 2584.5,-330.5 2584.5,-330.5 2584.5,-344.5 2584.5,-344.5 2584.5,-350.5 2578.5,-356.5 2572.5,-356.5"/>
<text text-anchor="middle" x="2520" y="-341.3" font-family="Arial" font-size="14.00">URDF 机器人模型</text>
<text text-anchor="middle" x="2520" y="-326.3" font-family="Arial" font-size="14.00">16 关节定义</text>
</g>
<!-- gazebo&#45;&gt;urdf -->
<g id="edge17" class="edge">
<title>gazebo&#45;&gt;urdf</title>
<path fill="none" stroke="black" d="M2514.9,-441.81C2515.87,-422.04 2517.45,-390.17 2518.59,-367.06"/>
<polygon fill="black" stroke="black" points="2522.1,-366.97 2519.1,-356.81 2515.11,-366.63 2522.1,-366.97"/>
</g>
<!-- rviz -->
<g id="node24" class="node">
<title>rviz</title>
<path fill="#f8bbd0" stroke="black" d="M1028,-54C1028,-54 950,-54 950,-54 944,-54 938,-48 938,-42 938,-42 938,-28 938,-28 938,-22 944,-16 950,-16 950,-16 1028,-16 1028,-16 1034,-16 1040,-22 1040,-28 1040,-28 1040,-42 1040,-42 1040,-48 1034,-54 1028,-54"/>
<text text-anchor="middle" x="989" y="-38.8" font-family="Arial" font-size="14.00">RViz2</text>
<text text-anchor="middle" x="989" y="-23.8" font-family="Arial" font-size="14.00">实时状态显示</text>
</g>
<!-- joint_states&#45;&gt;rviz -->
<g id="edge18" class="edge">
<title>joint_states&#45;&gt;rviz</title>
<path fill="none" stroke="black" d="M989,-90.96C989,-82.88 989,-73.18 989,-64.18"/>
<polygon fill="black" stroke="black" points="992.5,-64.09 989,-54.09 985.5,-64.09 992.5,-64.09"/>
</g>
</g>
</svg>
